<svg xmlns="http://www.w3.org/2000/svg" xmlns:xlink="http://www.w3.org/1999/xlink" version="1.1" id="Layer_1" x="0px" y="0px" width="100%" viewBox="0 0 398 364" enable-background="new 0 0 398 364" xml:space="preserve">
<path fill="#ffffff" opacity="1.000000" stroke="none" d=" M371.000000,365.000000   C247.705093,365.000000 124.410194,365.000000 1.057648,365.000000   C1.057648,243.742935 1.057648,122.485825 1.057648,1.114362   C133.548996,1.114362 266.098114,1.114362 399.000000,1.114362   C399.000000,88.021698 399.000000,175.043869 398.583984,262.521301   C397.740479,259.018066 397.313019,255.059570 396.933197,250.696289   C394.177216,241.907837 391.167786,233.585312 388.652008,225.116135   C387.278961,220.493912 386.742310,215.623245 385.882904,210.487946   C385.106628,207.743393 385.870850,204.378525 381.904999,203.573181   C375.740753,197.404495 368.326263,195.170609 359.983948,194.639954   C358.917664,192.206345 357.999756,190.102798 357.340332,187.719147   C357.456421,185.360336 357.894257,182.978363 357.010315,181.287277   C356.106689,179.558578 353.892395,177.450394 352.278107,177.471970   C350.809265,177.491623 349.375671,180.147110 347.578735,181.893433   C347.155304,184.075409 346.789246,186.047470 347.066193,187.924667   C347.596649,191.519806 349.063477,194.229889 353.692322,192.628693   C354.006439,192.994385 354.138702,193.134888 354.102997,193.575684   C352.955566,195.199707 351.976135,196.523422 350.683228,197.991821   C348.250397,199.687027 346.131012,201.237549 343.747711,202.908691   C343.296326,203.350464 343.108826,203.671585 342.955750,203.993149   C342.990204,203.993607 342.976440,203.926117 342.672424,204.022003   C341.265686,205.050751 340.162964,205.983627 339.032654,206.461426   C337.968842,191.050629 336.932648,176.094879 335.898376,161.166855   C332.918701,161.166855 330.449493,161.166855 327.515167,161.091309   C320.493866,160.855743 313.937653,160.695740 307.802551,160.460602   C316.850708,142.940598 325.477814,125.495697 334.479065,108.028557   C338.487335,107.281967 340.569092,104.989609 339.840424,101.401031   C339.452087,99.488647 337.716827,96.716156 336.211914,96.447571   C334.278290,96.102463 331.365601,97.356178 330.002258,98.910278   C328.874329,100.195984 329.382782,102.917206 329.087463,105.372162   C327.995544,108.103142 327.072662,110.508072 325.954437,112.818443   C318.816864,127.565186 311.641205,142.293503 304.460846,157.019485   C303.870544,158.230103 303.152313,159.378387 301.866791,160.575623   C286.864105,160.595612 272.488159,160.595612 258.346100,160.595612   C257.454987,166.652176 256.703369,171.760757 255.597382,176.793640   C254.493149,173.003799 251.762024,171.109314 248.438141,171.154190   C244.853287,171.202576 241.283752,172.386185 237.433609,172.886139   C235.447205,171.760712 233.734711,170.823700 231.995239,169.522980   C230.683899,164.830582 227.686142,162.503143 223.544083,164.448166   C220.304184,165.969574 218.672043,169.275742 221.001785,173.378296   C217.913757,179.196732 214.989777,184.692032 211.601288,190.113083   C206.459137,190.012833 201.781464,189.986816 197.208099,189.565704   C197.942017,186.169632 199.470444,183.206161 196.162598,180.528976   C194.497574,179.181381 193.494400,177.016006 191.774475,174.644928   C201.125854,173.243668 201.235626,170.415527 198.917694,163.014221   C198.049194,160.241119 196.296890,157.685211 192.376770,159.761154   C191.742432,160.097092 189.694489,158.895813 189.105713,157.919296   C188.231110,156.468719 187.130417,153.818481 187.778625,153.019226   C190.446823,149.729385 188.204239,147.679520 186.280273,145.930542   C183.760849,143.640259 179.334152,140.835434 177.346832,143.685364   C174.024734,148.449448 170.902908,146.435913 167.328461,145.621155   C166.492294,140.634567 164.629425,139.179077 160.160660,140.021286   C154.257416,141.133850 152.374283,143.873550 153.371399,149.955078   C151.605560,150.987152 149.825546,152.027542 148.028870,152.679398   C148.091492,147.698425 144.842194,146.120239 141.252274,144.960434   C130.807663,141.586029 120.343712,138.271484 110.039062,134.638901   C110.415558,133.396255 110.974274,132.380753 110.799095,131.513458   C110.368530,129.381760 109.600204,127.318268 109.329727,125.123833   C117.170212,120.703720 124.648697,116.387123 132.490936,112.041367   C135.032303,110.602570 137.209946,109.192924 139.729340,107.864334   C145.909180,112.402969 153.028351,114.494171 159.794022,113.691826   C175.848145,111.787941 185.833435,102.346970 188.844574,85.759659   C187.674850,76.088013 186.877487,66.626099 178.724808,59.700012   C177.733322,59.019413 176.628235,58.912781 175.934448,58.322609   C167.509262,51.155704 157.762222,52.495098 147.620514,53.920189   C138.142990,56.950897 132.110733,63.051712 128.472504,72.004013   C123.417374,73.148796 118.764282,75.125076 114.075111,75.214775   C106.873734,75.352531 99.920563,74.265656 95.287407,67.050415   C92.390572,62.539165 88.527519,58.142776 84.089569,55.232880   C75.096581,49.336319 64.460861,47.962700 54.094700,49.296513   C46.664398,50.252567 39.016937,52.597725 33.959476,59.299297   C23.850155,72.695007 23.212072,87.107559 28.635328,102.502426   C29.747557,105.659676 31.192770,106.049622 33.912060,106.037247   C47.907642,105.973511 61.903790,106.034569 75.942307,106.502182   C76.323036,114.153358 76.665848,121.354210 76.998085,128.555557   C77.337944,135.922028 77.747536,143.286636 77.961708,150.656876   C78.046318,153.568604 79.142105,153.189896 80.895035,152.277954   C81.949905,157.800613 85.929100,160.333191 89.458466,162.921143   C84.740479,162.983002 80.479698,162.983002 75.999802,162.983002   C75.999802,165.614304 76.002731,167.593552 75.999367,169.572800   C75.944733,201.714890 75.889297,233.856964 75.518852,265.862457   C69.813530,262.441986 64.423393,259.158142 59.017288,255.500534   C58.663532,251.511093 56.587994,248.892746 53.114445,249.259705   C51.032360,249.479660 48.264481,251.623779 47.446388,253.587112   C45.889801,257.322723 48.716724,259.566772 51.957031,261.533203   C52.644684,281.297455 53.299114,300.598511 53.656300,320.039551   C52.202461,321.107056 51.045872,322.034607 49.540565,322.833496   C37.500336,318.794250 25.808825,314.883636 14.068266,310.597046   C12.174381,308.483582 10.577433,306.078461 8.389155,305.266022   C7.132357,304.799377 3.656722,306.666504 3.408940,307.922699   C2.964904,310.173920 3.523584,313.272919 4.896406,315.081451   C6.998619,317.850861 10.048760,317.419128 12.805397,315.200745   C25.319782,319.696747 37.584770,323.875977 50.027138,328.371613   C52.366016,332.595917 55.393780,332.829346 58.813652,330.538879   C61.894161,328.475708 61.843445,325.007690 58.913929,320.707214   C58.654530,313.549866 58.300568,306.846130 58.015568,300.139435   C57.917362,297.828430 58.084488,295.505524 57.970325,293.195953   C57.422600,282.115082 56.820045,271.036957 56.324829,259.982300   C56.412697,260.006775 56.529465,259.866638 56.752533,260.185150   C63.268402,264.333069 69.561195,268.162506 75.918243,272.457153   C75.645828,298.276520 75.309181,323.630676 74.505760,348.989899   C68.106049,348.994995 62.173100,348.994995 56.018314,348.994995   C56.116405,350.971802 56.179295,352.239166 56.254387,353.752502   C57.482773,353.841736 58.447781,353.973053 59.412804,353.973175   C133.616928,353.983246 207.821091,353.960785 282.025116,354.046997   C285.874664,354.051483 286.609070,352.674713 285.462708,348.906097   C280.607239,348.906097 275.814667,348.906097 271.012756,348.446350   C270.974518,334.102356 270.945587,320.218109 271.303955,306.183228   C282.681610,304.723602 285.246429,300.191620 282.368073,287.542236   C286.868408,284.185760 291.281464,280.894379 295.140320,278.016357   C300.150269,279.401062 305.041565,280.752991 309.962921,282.563904   C309.995514,304.502380 309.979431,325.981903 310.041443,347.461182   C310.045685,348.927216 310.635742,350.391571 311.398926,351.918976   C313.115173,351.981262 314.385834,351.981262 315.837891,351.981262   C315.837891,327.019043 315.837891,302.477997 315.998047,277.616455   C317.764984,275.472168 319.371735,273.648438 321.439819,271.903015   C326.569733,272.011169 331.238342,272.041046 335.947937,272.532654   C335.988892,299.250031 335.988892,325.505615 335.988892,352.018402   C337.956665,351.925568 339.350250,351.859802 341.100708,351.777222   C341.100708,324.954742 341.100708,298.505524 341.534851,272.029114   C342.645569,270.877533 343.957977,269.717468 343.897064,268.634644   C343.454468,260.768951 342.735138,252.918808 342.522461,245.037140   C346.624908,245.394974 350.308228,245.779449 353.994995,246.564133   C355.327515,251.038620 356.656555,255.112885 357.990112,259.596130   C360.594635,274.585754 362.919769,289.222290 365.870270,303.731628   C368.957001,318.911041 372.644806,333.968231 376.022980,349.428375   C374.318756,351.110596 372.661407,352.443237 370.608093,353.877441   C368.542297,354.437805 366.727051,354.633301 365.253418,355.447235   C364.253540,355.999542 362.899475,357.800171 363.162628,358.377045   C363.817505,359.812531 365.202667,360.995422 366.489014,362.040527   C367.877563,363.168671 369.486938,364.025055 371.000000,365.000000  M349.595673,31.066107   C345.418335,28.035965 341.511108,24.502190 337.004791,22.085512   C328.824249,17.698399 319.891052,18.465107 311.164368,20.119984   C301.292084,21.992104 293.318604,26.768688 287.628204,35.536530   C284.647125,40.129848 280.443512,44.668369 274.406128,44.827606   C268.753784,44.976688 262.894714,44.411865 257.430450,42.991966   C247.850174,40.502544 239.525436,42.442047 232.627396,49.055634   C226.365891,55.058952 226.415695,62.851673 228.354080,70.824730   C229.287064,74.662323 230.972580,76.159134 235.330811,76.131882   C272.328583,75.900429 309.328400,75.999443 346.327606,75.999336   C348.133240,75.999329 349.938904,75.999329 352.009552,75.999329   C357.792206,60.729965 358.392914,46.008492 349.595673,31.066107  z"/>
<path fill="#000000" opacity="1.000000" stroke="none" d=" M396.885559,251.101074   C397.313019,255.059570 397.740479,259.018066 398.583984,262.988281   C399.000000,278.354218 399.000000,293.708466 398.624054,309.503540   C396.498352,314.631134 394.639374,319.280518 393.022003,324.012543   C389.814941,333.395386 386.741211,342.823822 383.266296,352.228516   C381.602692,351.159668 380.285156,350.095703 379.353760,349.000000   C380.373810,348.098755 381.547455,347.229919 381.548401,346.359802   C381.552551,342.573242 381.215332,338.786346 381.316650,334.768677   C381.959503,332.938721 382.360107,331.350555 382.603912,329.738708   C383.752960,322.142426 386.535095,314.315796 385.557465,306.995667   C384.327301,297.784729 380.010193,288.986023 377.020630,279.541565   C377.001007,273.764984 376.985870,268.456299 377.334351,263.038025   C385.555786,261.357788 391.425598,256.561890 396.885559,251.101074  z"/>
<path fill="#ffffff" opacity="1.000000" stroke="none" d=" M383.612427,352.233429   C386.741211,342.823822 389.814941,333.395386 393.022003,324.012543   C394.639374,319.280518 396.498352,314.631134 398.624054,309.972168   C399.000000,325.020905 399.000000,340.041779 398.690430,355.845093   C393.587250,355.420197 388.793640,354.212860 383.897156,352.815521   C383.794281,352.625488 383.612427,352.233429 383.612427,352.233429  z"/>
<path fill="#ffffff" opacity="1.000000" stroke="none" d=" M384.000031,353.005554   C388.793640,354.212860 393.587250,355.420197 398.690430,356.313751   C399.000000,357.388885 399.000000,358.777802 398.692139,360.269989   C395.873840,361.265259 393.332001,362.082550 390.880249,363.113983   C390.406250,363.313385 390.284332,364.349731 390.000000,365.000000   C383.978851,365.000000 377.957703,365.000000 371.468262,365.000000   C369.486938,364.025055 367.877563,363.168671 366.489014,362.040527   C365.202667,360.995422 363.817505,359.812531 363.162628,358.377045   C362.899475,357.800171 364.253540,355.999542 365.253418,355.447235   C366.727051,354.633301 368.542297,354.437805 370.822388,354.154816   C373.653992,354.087219 375.875305,353.843781 377.604095,353.654297   C379.922272,355.427856 382.105438,357.098114 385.035126,359.339539   C384.564789,356.461517 384.282410,354.733521 384.000031,353.005554  z"/>
<path fill="#ffffff" opacity="1.000000" stroke="none" d=" M390.491089,365.000000   C390.284332,364.349731 390.406250,363.313385 390.880249,363.113983   C393.332001,362.082550 395.873840,361.265259 398.692139,360.686646   C399.000000,362.281921 399.000000,363.563812 399.000000,365.000000   C396.328308,365.000000 393.655212,365.000000 390.491089,365.000000  z"/>
<path fill="#8de9f7" opacity="1.000000" stroke="none" d=" M75.834045,265.999054   C75.889297,233.856964 75.944733,201.714890 75.999367,169.572800   C76.002731,167.593552 75.999802,165.614304 75.999802,162.983002   C80.479698,162.983002 84.740479,162.983002 89.929077,162.977722   C99.225868,162.991486 107.594833,163.010544 115.979919,163.494446   C116.036972,169.953430 116.077904,175.947540 116.049744,182.332031   C114.827316,185.909927 113.697617,189.106247 112.514633,192.282730   C111.054634,196.203049 109.550308,200.106888 107.890961,204.313629   C106.297264,206.134460 104.877731,207.659531 102.982544,209.695618   C107.419472,213.745773 111.437462,217.413528 115.504181,221.073090   C115.552902,221.064926 115.640831,221.019836 115.655396,221.488525   C115.832130,228.643234 115.994308,235.329239 116.088745,242.474289   C116.026108,246.995499 116.031212,251.057678 116.004799,255.580078   C115.992409,287.021088 116.011536,318.001862 115.560135,348.989990   C101.717247,348.993164 88.344887,348.988983 74.972527,348.984802   C75.309181,323.630676 75.645828,298.276520 76.000458,272.034546   C75.956970,269.430786 75.895508,267.714935 75.834045,265.999054  z"/>
<path fill="#8de9f7" opacity="1.000000" stroke="none" d=" M197.103790,189.960800   C201.781464,189.986816 206.459137,190.012833 211.801727,190.418549   C214.316864,190.476242 216.167099,190.154236 218.390518,190.045776   C218.875626,193.161148 218.987534,196.062943 219.056595,199.433960   C219.041916,233.614182 219.070099,267.325195 219.054810,301.502502   C219.017654,317.640167 219.023972,333.311584 218.559784,348.990021   C205.049500,348.992371 192.009705,348.987671 178.983139,348.516144   C178.954514,305.712708 178.912674,263.376068 179.052536,220.738235   C184.822968,217.279037 190.411713,214.121063 197.221085,210.273361   C192.490585,210.904877 189.184921,211.154541 185.966766,211.824448   C181.975769,212.655273 178.908722,211.859283 177.054230,207.638458   C176.970612,206.907211 176.919571,206.490067 177.237732,205.893433   C178.382431,200.948318 179.157928,196.182678 180.018600,190.893600   C182.908951,190.893600 185.885605,190.893600 189.296112,190.930145   C191.710678,190.919891 193.691376,190.873093 195.967041,190.795807   C196.542603,190.497162 196.823196,190.228973 197.103790,189.960800  z"/>
<path fill="#d3e5e8" opacity="1.000000" stroke="none" d=" M320.978516,271.824677   C319.371735,273.648438 317.764984,275.472168 315.742798,277.336639   C314.683075,274.929108 315.878113,270.993256 310.551086,271.981323   C296.811340,271.963837 283.492371,271.956818 269.709839,271.828979   C264.819702,271.795990 260.393188,271.883881 255.578690,271.946503   C254.154465,271.926514 253.118195,271.931824 251.691650,271.807007   C249.573624,271.446533 247.845886,271.216156 245.902847,270.957062   C246.241409,265.701996 246.554993,260.834564 246.927185,255.529053   C247.933228,247.527008 248.959976,239.971909 249.805130,232.396545   C250.597946,225.290237 251.198654,218.162491 252.180450,210.769501   C253.318192,202.393784 254.159348,194.292770 255.267303,185.962769   C255.655991,184.580032 255.777847,183.426270 255.927643,181.822021   C255.954285,179.870804 255.953018,178.370071 255.951752,176.869339   C256.703369,171.760757 257.454987,166.652176 258.346100,160.595612   C272.488159,160.595612 286.864105,160.595612 302.011993,160.579956   C304.316437,160.554779 305.848969,160.545258 307.381470,160.535736   C313.937653,160.695740 320.493866,160.855743 327.520996,161.534622   C327.675018,165.509293 327.245300,168.959061 327.059906,172.421906   C325.997101,192.272202 324.992310,212.125580 323.541809,231.985565   C312.794098,230.631104 302.472412,229.268967 291.854553,227.654678   C289.476410,226.858246 287.394348,226.313965 285.621582,225.548950   C290.040222,224.545517 292.832489,222.342209 293.848694,217.717529   C293.345245,215.484283 292.724274,213.629959 291.886536,211.488739   C289.402679,211.074875 287.135651,210.947891 284.529602,210.902374   C277.914124,215.083801 276.908478,219.095337 281.184052,224.178802   C282.738708,224.869522 284.055786,225.306366 285.277161,226.134857   C285.244354,231.399948 288.968781,230.638947 292.229156,231.229263   C295.108276,232.353577 297.768036,233.156815 300.393555,234.059586   C307.944611,236.655975 315.481842,239.292572 323.014313,242.358154   C322.328918,252.476852 321.653717,262.150757 320.978516,271.824677  M271.430115,261.724091   C271.937317,261.509125 272.444519,261.294159 273.665405,261.330811   C275.049591,260.926636 276.433777,260.522461 278.022461,260.749420   C279.675659,260.803589 281.328857,260.857788 283.632935,261.212463   C285.378052,261.156097 287.123169,261.099762 289.229919,261.689789   C290.526184,261.441895 291.822418,261.194000 293.817871,261.158722   C295.557587,261.101624 297.297272,261.044525 299.692047,261.229736   C301.458984,260.790619 303.225891,260.351501 305.257446,260.811188   C306.836761,260.749329 308.416077,260.687500 310.449982,261.170624   C311.832062,261.283020 313.214142,261.395386 314.826508,261.526520   C315.329224,258.414185 315.752899,255.791336 316.297028,252.422607   C314.017212,252.950806 312.520081,253.297684 311.088654,252.789795   C311.314636,250.781769 311.540619,248.773758 311.762909,246.798477   C306.039185,245.029190 308.249176,250.805450 305.411896,251.766495   C305.430878,250.733765 305.449860,249.701035 305.468842,248.668320   C303.982422,248.989777 302.496033,249.311218 301.105408,248.804245   C301.105408,247.233536 301.105408,245.662811 301.105408,244.092102   C300.736725,243.817886 300.368073,243.543655 299.999390,243.269440   C299.010468,244.316742 297.697998,245.209152 297.105621,246.446335   C296.126678,248.490829 295.612305,250.757751 294.105133,252.981277   C292.771179,252.962982 291.437225,252.944672 289.833862,252.286957   C289.833862,250.478928 289.833862,248.670883 289.833862,245.584793   C287.748718,246.770538 286.297821,247.595612 284.115143,248.411880   C282.423767,249.270554 280.732361,250.129242 278.916718,250.181503   C279.104340,248.270340 279.291992,246.359177 279.479645,244.448013   C279.114868,244.101593 278.750092,243.755173 278.385315,243.408752   C277.276886,244.526825 275.659637,245.460983 275.174133,246.804214   C274.358002,249.062332 274.261383,251.580521 273.234711,253.987198   C273.025848,253.999603 272.816986,254.012024 272.554474,253.261002   C271.042114,253.209900 269.529724,253.158813 267.999481,252.303345   C268.212524,250.551468 268.425598,248.799591 268.659912,246.872910   C266.081116,245.946960 264.178772,245.775757 263.833313,249.266815   C263.772003,249.886261 262.712097,250.406891 262.302429,250.320358   C260.902557,249.860245 259.502655,249.400131 257.835083,248.302231   C257.835083,246.930862 257.835083,245.559494 257.835083,244.188126   C257.051880,243.941635 256.268646,243.695145 255.485443,243.448654   C251.511536,248.355011 252.825317,255.176224 250.630035,261.814545   C253.056946,261.400543 254.581070,261.140533 256.753967,261.311310   C258.898743,261.783447 260.946045,262.078003 261.714600,259.193726   C262.164520,262.235962 264.065735,261.819183 266.523682,261.046631   C266.523682,261.046631 266.928589,261.016815 267.701385,261.375092   C268.833191,261.384766 269.965027,261.394440 271.430115,261.724091  M263.475250,210.890106   C257.297363,214.804581 256.135071,219.129440 260.462372,224.362991   C265.114197,226.571335 268.705658,224.949387 271.634247,221.187836   C273.399261,218.920776 273.198181,217.067993 270.283600,215.356689   C270.402466,213.907669 270.521362,212.458633 270.640228,211.009613   C268.490784,210.896118 266.341370,210.782623 263.475250,210.890106  M306.331116,211.988495   C300.345612,216.165695 299.386566,219.915100 303.673859,225.339111   C306.634827,225.100571 310.015961,225.670761 312.445129,224.408646   C315.177979,222.988754 318.001343,220.012405 313.492249,216.230362   C313.447510,214.744339 313.635162,212.031174 313.320251,211.971512   C311.280090,211.585098 309.130463,211.776779 306.331116,211.988495  M269.834351,186.151169   C268.044983,186.425171 266.255615,186.699158 264.466248,186.973145   C272.059265,189.887039 293.994293,189.122620 297.263824,186.151489   C287.790314,186.151489 279.277100,186.151489 269.834351,186.151169  M298.578766,171.717239   C289.902588,170.104950 269.611359,170.889633 267.218323,173.125549   C267.920502,173.386185 268.496521,173.784103 269.074554,173.787033   C278.230011,173.833191 287.386078,173.861572 296.540924,173.777756   C297.334717,173.770508 298.121033,172.946365 298.578766,171.717239  M287.470215,180.067276   C280.400909,180.067276 273.331635,180.067276 266.262329,180.067276   C266.290894,180.530930 266.319427,180.994568 266.347961,181.458221   C277.094360,181.458221 287.840729,181.458221 298.587097,181.458221   C298.596436,180.994598 298.605804,180.530991 298.615173,180.067368   C295.229370,180.067368 291.843597,180.067368 287.470215,180.067276  M274.535370,192.932358   C279.255646,192.932358 283.975952,192.932358 288.696228,192.932358   C288.664642,192.475555 288.633087,192.018738 288.601501,191.561935   C280.537231,191.561935 272.472931,191.561935 264.408661,191.561935   C264.408905,192.018707 264.409149,192.475494 264.409393,192.932266   C267.459045,192.932266 270.508667,192.932266 274.535370,192.932358  M288.978119,175.955490   C281.759399,175.955490 274.540710,175.955490 267.321991,175.955490   C267.347748,176.421890 267.373505,176.888275 267.399231,177.354675   C275.410339,177.354675 283.421417,177.354675 291.432526,177.354675   C291.457275,177.065231 291.482056,176.775772 291.506805,176.486328   C290.952972,176.315308 290.399139,176.144302 288.978119,175.955490  M291.222382,195.686951   C282.039917,195.686951 272.857452,195.686951 263.674988,195.686951   C263.682800,196.040115 263.690613,196.393265 263.698425,196.746429   C274.274292,196.746429 284.850159,196.746429 295.426056,196.746429   C295.436676,196.526169 295.447327,196.305908 295.457947,196.085663   C294.353333,195.952728 293.248688,195.819809 291.222382,195.686951  z"/>
<path fill="#6c767e" opacity="1.000000" stroke="none" d=" M349.838318,31.344688   C358.392914,46.008492 357.792206,60.729965 352.009552,75.999329   C349.938904,75.999329 348.133240,75.999329 346.327606,75.999336   C309.328400,75.999443 272.328583,75.900429 235.330811,76.131882   C230.972580,76.159134 229.287064,74.662323 228.354080,70.824730   C226.415695,62.851673 226.365891,55.058952 232.627396,49.055634   C239.525436,42.442047 247.850174,40.502544 257.430450,42.991966   C262.894714,44.411865 268.753784,44.976688 274.406128,44.827606   C280.443512,44.668369 284.647125,40.129848 287.628204,35.536530   C293.318604,26.768688 301.292084,21.992104 311.164368,20.119984   C319.891052,18.465107 328.824249,17.698399 337.004791,22.085512   C341.511108,24.502190 345.418335,28.035965 349.838318,31.344688  z"/>
<path fill="#6c767e" opacity="1.000000" stroke="none" d=" M75.899742,106.052071   C61.903790,106.034569 47.907642,105.973511 33.912060,106.037247   C31.192770,106.049622 29.747557,105.659676 28.635328,102.502426   C23.212072,87.107559 23.850155,72.695007 33.959476,59.299297   C39.016937,52.597725 46.664398,50.252567 54.094700,49.296513   C64.460861,47.962700 75.096581,49.336319 84.089569,55.232880   C88.527519,58.142776 92.390572,62.539165 95.287407,67.050415   C99.920563,74.265656 106.873734,75.352531 114.075111,75.214775   C118.764282,75.125076 123.417374,73.148796 128.508209,72.396500   C128.361237,77.183434 127.792686,81.591545 126.772392,85.991936   C119.511032,85.674881 112.701408,85.365562 105.470917,85.028198   C102.303642,85.624825 99.557251,86.249481 96.811752,86.421471   C96.534340,84.320259 96.256042,82.671715 95.972595,80.653687   C95.265869,78.475769 94.564278,76.667343 93.762695,74.542099   C91.983078,73.772209 90.021355,72.580643 88.706627,73.082855   C87.497849,73.544579 86.423355,75.792870 86.323631,77.321533   C86.222885,78.865990 87.392242,80.493294 88.094345,82.330490   C88.451378,83.024376 88.719276,83.472084 88.936378,84.191940   C88.899399,84.647514 88.913208,84.830940 88.796692,85.358536   C88.440781,87.157661 88.215179,88.612617 87.643463,90.170349   C83.876427,91.531891 80.455498,92.790642 76.701950,94.223129   C76.307159,98.004196 76.244995,101.611526 76.129364,105.433044   C76.075890,105.647224 75.899742,106.052071 75.899742,106.052071  z"/>
<path fill="#361370" opacity="1.000000" stroke="none" d=" M176.868530,206.072906   C176.919571,206.490067 176.970612,206.907211 176.858917,207.912933   C174.794800,209.671127 172.893402,210.840759 170.746994,211.855530   C169.723892,211.133392 168.945801,210.566101 168.067810,209.673798   C166.335159,207.619049 164.702438,205.889297 162.773376,204.004639   C161.039276,202.244583 159.601517,200.639465 158.056885,198.705872   C153.125519,193.203217 148.372437,187.959747 143.447342,182.883148   C140.865967,180.222366 137.982880,177.854279 135.155884,174.991333   C131.753067,171.416443 128.430389,168.204224 124.914268,164.645279   C121.801804,163.875549 118.882805,163.452560 115.963799,163.029587   C107.594833,163.010544 99.225868,162.991486 90.386292,162.915863   C85.929100,160.333191 81.949905,157.800613 81.053650,151.967773   C87.425529,147.533920 93.696655,143.782272 100.237061,140.296387   C104.528687,141.380966 108.548393,142.213028 112.573868,143.016144   C125.247368,145.544601 138.699768,146.538574 145.890778,160.319809   C148.587021,164.717316 151.207504,168.760574 153.989136,173.123230   C157.156799,177.943604 160.163300,182.444580 163.162766,187.299805   C164.706573,190.309937 166.257431,192.965836 167.915009,195.977798   C169.016815,197.984970 169.773529,199.860764 171.065796,201.231750   C172.781265,203.051666 174.914688,204.477661 176.868530,206.072906  z"/>
<path fill="#8de9f7" opacity="1.000000" stroke="none" d=" M153.827988,172.803818   C151.207504,168.760574 148.587021,164.717316 146.047577,159.991547   C146.767578,157.228668 147.406555,155.148285 148.045532,153.067917   C149.825546,152.027542 151.605560,150.987152 153.371399,149.955078   C152.374283,143.873550 154.257416,141.133850 160.160660,140.021286   C164.629425,139.179077 166.492294,140.634567 167.328461,145.621155   C170.902908,146.435913 174.024734,148.449448 177.346832,143.685364   C179.334152,140.835434 183.760849,143.640259 186.280273,145.930542   C188.204239,147.679520 190.446823,149.729385 187.778625,153.019226   C187.130417,153.818481 188.231110,156.468719 189.105713,157.919296   C189.694489,158.895813 191.742432,160.097092 192.376770,159.761154   C196.296890,157.685211 198.049194,160.241119 198.917694,163.014221   C201.235626,170.415527 201.125854,173.243668 191.774475,174.644928   C193.494400,177.016006 194.497574,179.181381 196.162598,180.528976   C199.470444,183.206161 197.942017,186.169632 197.208099,189.565704   C196.823196,190.228973 196.542603,190.497162 195.784378,190.542908   C189.551437,186.599823 183.796127,182.879135 178.392120,178.959564   C180.592438,173.650009 181.180908,168.882919 176.934143,164.336777   C172.747437,159.854919 167.869446,157.870499 162.369766,160.398911   C157.417755,162.675537 153.478928,166.476929 153.827988,172.803818  z"/>
<path fill="#615D89" opacity="1.000000" stroke="none" d=" M178.969925,348.982971   C192.009705,348.987671 205.049500,348.992371 219.001251,348.995667   C222.268372,348.963684 224.623550,348.933075 227.446838,348.937347   C235.944046,348.936096 243.973114,348.899963 252.406342,348.914917   C253.896912,348.933502 254.983322,348.900940 256.529907,348.909729   C261.667389,348.936066 266.344757,348.921082 271.022095,348.906097   C275.814667,348.906097 280.607239,348.906097 285.462708,348.906097   C286.609070,352.674713 285.874664,354.051483 282.025116,354.046997   C207.821091,353.960785 133.616928,353.983246 59.412804,353.973175   C58.447781,353.973053 57.482773,353.841736 56.254387,353.752502   C56.179295,352.239166 56.116405,350.971802 56.018314,348.994995   C62.173100,348.994995 68.106049,348.994995 74.505760,348.989899   C88.344887,348.988983 101.717247,348.993164 115.993965,348.995789   C118.921471,348.966980 120.944626,348.939758 123.436646,348.946655   C138.614426,348.958008 153.323318,348.935242 168.486603,348.945038   C172.283966,348.979370 175.626938,348.981171 178.969925,348.982971  z"/>
<path fill="#ff4f5a" opacity="1.000000" stroke="none" d=" M344.011597,202.788055   C346.131012,201.237549 348.250397,199.687027 350.987823,198.221344   C351.998779,199.601547 352.391693,200.896942 353.308258,203.918732   C356.164520,200.173172 358.148407,197.571579 360.132324,194.969971   C368.326263,195.170609 375.740753,197.404495 381.560699,203.658478   C379.313660,206.904694 376.615906,209.495544 375.361359,212.658768   C372.442963,220.017166 370.347748,227.698425 367.608551,235.134521   C367.055542,236.635712 365.230469,238.536392 363.820526,238.691071   C359.588959,239.155289 355.272614,238.847076 350.992859,238.460358   C348.716370,232.725418 346.436401,227.370392 344.118225,221.595001   C343.712189,215.425125 343.344299,209.675613 342.976440,203.926117   C342.976440,203.926117 342.990204,203.993607 343.291748,203.992950   C343.732758,203.590897 343.872192,203.189468 344.011597,202.788055  z"/>
<path fill="#17a2b8" opacity="1.000000" stroke="none" d=" M271.012756,348.446350   C266.344757,348.921082 261.667389,348.936066 256.522095,348.453430   C256.024994,322.627838 255.995819,297.299805 255.966660,271.971802   C260.393188,271.883881 264.819702,271.795990 269.688110,272.300720   C270.124664,279.658997 270.021973,286.426453 270.148956,293.189636   C270.231323,297.574280 270.649139,301.952667 270.916656,306.333862   C270.945587,320.218109 270.974518,334.102356 271.012756,348.446350  z"/>
<path fill="#1f0b4c" opacity="1.000000" stroke="none" d=" M376.970734,263.147583   C376.985870,268.456299 377.001007,273.764984 377.011292,280.009308   C376.321136,299.112244 377.760559,317.122528 381.002136,334.999573   C381.215332,338.786346 381.552551,342.573242 381.548401,346.359802   C381.547455,347.229919 380.373810,348.098755 378.990601,348.992859   C377.517517,349.037933 376.793701,349.058380 376.069885,349.078827   C372.644806,333.968231 368.957001,318.911041 365.870270,303.731628   C362.919769,289.222290 360.594635,274.585754 358.348938,259.605591   C364.792419,260.519897 370.881592,261.833740 376.970734,263.147583  z"/>
<path fill="#ff4f5a" opacity="1.000000" stroke="none" d=" M377.334351,263.038025   C370.881592,261.833740 364.792419,260.519897 358.344421,259.196594   C356.656555,255.112885 355.327515,251.038620 354.421143,246.505585   C359.952454,246.505753 365.121918,246.627090 370.150391,247.531906   C374.074921,248.238083 375.796600,247.252380 376.806000,243.332275   C379.606476,232.456406 382.793915,221.680206 385.828430,210.864609   C386.742310,215.623245 387.278961,220.493912 388.652008,225.116135   C391.167786,233.585312 394.177216,241.907837 396.933197,250.696289   C391.425598,256.561890 385.555786,261.357788 377.334351,263.038025  z"/>
<path fill="#ff4f5a" opacity="1.000000" stroke="none" d=" M99.967781,140.030624   C93.696655,143.782272 87.425529,147.533920 80.995773,151.595764   C79.142105,153.189896 78.046318,153.568604 77.961708,150.656876   C77.747536,143.286636 77.337944,135.922028 76.998085,128.555557   C76.665848,121.354210 76.323036,114.153358 75.942307,106.502182   C75.899742,106.052071 76.075890,105.647224 76.458824,105.418854   C84.059647,113.541916 91.277534,121.893349 98.616005,130.384308   C102.206024,128.595840 105.586876,126.911591 108.967728,125.227341   C109.600204,127.318268 110.368530,129.381760 110.799095,131.513458   C110.974274,132.380753 110.415558,133.396255 109.677094,134.668488   C106.098206,136.671982 103.032997,138.351303 99.967781,140.030624  z"/>
<path fill="#ff4f5a" opacity="1.000000" stroke="none" d=" M271.303955,306.183228   C270.649139,301.952667 270.231323,297.574280 270.148956,293.189636   C270.021973,286.426453 270.124664,279.658997 270.151672,272.421570   C283.492371,271.956818 296.811340,271.963837 310.561096,272.434448   C310.982666,275.911743 310.973419,278.925415 310.705200,281.973511   C310.275116,282.040222 310.103973,282.072571 309.932831,282.104889   C305.041565,280.752991 300.150269,279.401062 295.140320,278.016357   C291.281464,280.894379 286.868408,284.185760 282.368073,287.542236   C285.246429,300.191620 282.681610,304.723602 271.303955,306.183228  z"/>
<path fill="#CBC9D8" opacity="1.000000" stroke="none" d=" M323.967804,231.977905   C324.992310,212.125580 325.997101,192.272202 327.059906,172.421906   C327.245300,168.959061 327.675018,165.509293 327.986084,161.610168   C330.449493,161.166855 332.918701,161.166855 335.898376,161.166855   C336.932648,176.094879 337.968842,191.050629 339.007751,206.839020   C335.891998,213.435669 332.917999,219.284927 329.589966,224.925308   C328.077118,227.489304 325.863525,229.639832 323.967804,231.977905  z"/>
<path fill="#ff4f5a" opacity="1.000000" stroke="none" d=" M127.224136,85.999664   C127.792686,81.591545 128.361237,77.183434 128.894104,72.382828   C132.110733,63.051712 138.142990,56.950897 147.863403,54.192787   C149.649170,57.921795 150.814133,61.439316 151.687210,65.139908   C137.181427,72.707016 135.345001,85.810402 146.579895,98.047546   C143.944458,101.362282 141.567856,104.465080 139.065948,107.236641   C138.000336,105.959908 137.060059,105.014427 135.901566,103.802856   C133.922928,101.247154 132.162491,98.957520 130.327316,96.295418   C129.243103,92.615189 128.233612,89.307426 127.224136,85.999664  z"/>
<path fill="#17a2b8" opacity="1.000000" stroke="none" d=" M139.191254,107.567886   C141.567856,104.465080 143.944458,101.362282 146.938477,98.182755   C161.034790,104.965523 172.748688,99.554550 176.673950,84.895691   C181.007675,85.334831 184.922516,85.727356 188.837341,86.119881   C185.833435,102.346970 175.848145,111.787941 159.794022,113.691826   C153.028351,114.494171 145.909180,112.402969 139.679352,107.811302   C139.287582,107.677216 139.191238,107.567879 139.191254,107.567886  z"/>
<path fill="#ffc3c8" opacity="1.000000" stroke="none" d=" M385.882904,210.487946   C382.793915,221.680206 379.606476,232.456406 376.806000,243.332275   C375.796600,247.252380 374.074921,248.238083 370.150391,247.531906   C365.121918,246.627090 359.952454,246.505753 354.417633,246.105362   C350.308228,245.779449 346.624908,245.394974 342.103180,245.010956   C338.817810,244.648315 336.370880,244.285263 333.942993,243.549789   C333.981140,242.426163 334.000244,241.674957 334.428345,240.931213   C337.257599,240.601944 339.677856,240.265213 342.509583,239.959137   C345.610443,239.606613 348.299896,239.223450 350.989349,238.840271   C355.272614,238.847076 359.588959,239.155289 363.820526,238.691071   C365.230469,238.536392 367.055542,236.635712 367.608551,235.134521   C370.347748,227.698425 372.442963,220.017166 375.361359,212.658768   C376.615906,209.495544 379.313660,206.904694 381.700043,203.968506   C385.870850,204.378525 385.106628,207.743393 385.882904,210.487946  z"/>
<path fill="#CBC9D8" opacity="1.000000" stroke="none" d=" M333.923950,243.922211   C336.370880,244.285263 338.817810,244.648315 341.684021,245.037567   C342.735138,252.918808 343.454468,260.768951 343.897064,268.634644   C343.957977,269.717468 342.645569,270.877533 341.102783,271.993103   C338.793365,272.013214 337.350159,272.042084 335.906952,272.070923   C331.238342,272.041046 326.569733,272.011169 321.439819,271.903015   C321.653717,262.150757 322.328918,252.476852 323.375366,242.376938   C324.469879,241.980698 325.193146,242.010468 326.117432,242.370789   C328.853638,243.108292 331.388794,243.515259 333.923950,243.922211  z"/>
<path fill="#ffc5c8" opacity="1.000000" stroke="none" d=" M109.329727,125.123825   C105.586876,126.911591 102.206024,128.595840 98.616005,130.384308   C91.277534,121.893349 84.059647,113.541916 76.512299,105.204666   C76.244995,101.611526 76.307159,98.004196 76.841446,94.532387   C79.148705,95.785103 81.294540,96.594063 82.763344,98.074669   C88.145050,103.499611 93.367790,109.087471 98.522697,114.730614   C102.962921,119.591370 103.235016,119.703362 109.505737,115.980545   C117.224274,113.309402 124.566246,110.635811 131.928131,108.374222   C132.007751,109.880989 132.067459,110.975754 132.127182,112.070526   C124.648697,116.387123 117.170212,120.703720 109.329727,125.123825  z"/>
<path fill="#fec7ca" opacity="1.000000" stroke="none" d=" M325.916382,242.040237   C325.193146,242.010468 324.469879,241.980698 323.385559,241.932159   C315.481842,239.292572 307.944611,236.655975 300.393555,234.059586   C297.768036,233.156815 295.108276,232.353577 292.239868,230.849243   C292.060608,229.431366 292.105652,228.669098 292.150696,227.906830   C302.472412,229.268967 312.794098,230.631104 323.541809,231.985565   C325.863525,229.639832 328.077118,227.489304 329.589966,224.925308   C332.917999,219.284927 335.891998,213.435669 339.035370,207.294067   C340.162964,205.983627 341.265686,205.050751 342.672424,204.022003   C343.344299,209.675613 343.712189,215.425125 343.970825,221.920563   C342.854248,224.462036 341.846893,226.257568 340.595337,228.276855   C338.217651,232.373047 336.084106,236.245483 333.522339,240.091919   C330.701508,240.724045 328.308929,241.382141 325.916382,242.040237  z"/>
<path fill="#8de9f7" opacity="1.000000" stroke="none" d=" M335.947937,272.532654   C337.350159,272.042084 338.793365,272.013214 340.668640,272.020355   C341.100708,298.505524 341.100708,324.954742 341.100708,351.777222   C339.350250,351.859802 337.956665,351.925568 335.988892,352.018402   C335.988892,325.505615 335.988892,299.250031 335.947937,272.532654  z"/>
<path fill="#8de9f7" opacity="1.000000" stroke="none" d=" M310.964172,281.939117   C310.973419,278.925415 310.982666,275.911743 310.981873,272.444946   C315.878113,270.993256 314.683075,274.929108 315.582642,277.657166   C315.837891,302.477997 315.837891,327.019043 315.837891,351.981262   C314.385834,351.981262 313.115173,351.981262 311.414124,351.459595   C310.977264,327.938324 310.970734,304.938721 310.964172,281.939117  z"/>
<path fill="#1f0c4d" opacity="1.000000" stroke="none" d=" M100.237061,140.296387   C103.032997,138.351303 106.098206,136.671982 109.525383,134.963074   C120.343712,138.271484 130.807663,141.586029 141.252274,144.960434   C144.842194,146.120239 148.091492,147.698425 148.028870,152.679398   C147.406555,155.148285 146.767578,157.228668 145.971802,159.637299   C138.699768,146.538574 125.247368,145.544601 112.573868,143.016144   C108.548393,142.213028 104.528687,141.380966 100.237061,140.296387  z"/>
<path fill="#ff4f5a" opacity="1.000000" stroke="none" d=" M307.802551,160.460602   C305.848969,160.545258 304.316437,160.554779 302.638733,160.559967   C303.152313,159.378387 303.870544,158.230103 304.460846,157.019485   C311.641205,142.293503 318.816864,127.565186 325.954437,112.818443   C327.072662,110.508072 327.995544,108.103142 329.410461,105.425827   C331.243103,106.090088 332.673981,107.070442 334.104889,108.050797   C325.477814,125.495697 316.850708,142.940598 307.802551,160.460602  z"/>
<path fill="#8de9f7" opacity="1.000000" stroke="none" d=" M151.979080,64.956833   C150.814133,61.439316 149.649170,57.921795 148.241333,54.131680   C157.762222,52.495098 167.509262,51.155704 175.934448,58.322609   C176.628235,58.912781 177.733322,59.019413 178.432953,59.839928   C175.716980,63.262474 173.215363,66.195824 170.394135,69.008156   C164.727509,64.424194 158.602905,63.541286 151.979080,64.956833  z"/>
<path fill="#ff4f5a" opacity="1.000000" stroke="none" d=" M170.713745,69.129166   C173.215363,66.195824 175.716980,63.262474 178.510468,60.189220   C186.877487,66.626099 187.674850,76.088013 188.844574,85.759659   C184.922516,85.727356 181.007675,85.334831 176.639465,84.473892   C176.608978,78.220131 174.246262,73.459480 170.713745,69.129166  z"/>
<path fill="#ff4f5a" opacity="1.000000" stroke="none" d=" M56.236969,259.957855   C56.820045,271.036957 57.422600,282.115082 57.970325,293.195953   C58.084488,295.505524 57.917362,297.828430 58.015568,300.139435   C58.300568,306.846130 58.654530,313.549866 58.556591,320.661438   C56.739010,320.678589 55.346279,320.289093 53.953545,319.899567   C53.299114,300.598511 52.644684,281.297455 52.284706,261.353333   C53.798428,260.459442 55.017696,260.208649 56.236969,259.957855  z"/>
<path fill="#ff4f5a" opacity="1.000000" stroke="none" d=" M49.849754,328.055206   C37.584770,323.875977 25.319782,319.696747 12.911314,314.868317   C13.217664,313.137085 13.667496,312.055054 14.117322,310.973022   C25.808825,314.883636 37.500336,318.794250 49.623295,323.252258   C49.986416,325.218170 49.918087,326.636688 49.849754,328.055206  z"/>
<path fill="#febf92" opacity="1.000000" stroke="none" d=" M359.983948,194.639938   C358.148407,197.571579 356.164520,200.173172 353.308258,203.918732   C352.391693,200.896942 351.998779,199.601547 351.301270,198.076660   C351.976135,196.523422 352.955566,195.199707 354.324280,193.442154   C354.312531,192.806732 353.911499,192.605118 353.510437,192.403503   C349.063477,194.229889 347.596649,191.519806 347.066193,187.924667   C346.789246,186.047470 347.155304,184.075409 347.993073,182.092163   C353.254395,180.916992 356.013702,182.369598 356.509003,187.239487   C356.536438,187.509369 356.883545,187.746735 357.081848,187.999237   C357.999756,190.102798 358.917664,192.206345 359.983948,194.639938  z"/>
<path fill="#ff4f5a" opacity="1.000000" stroke="none" d=" M255.899719,182.272491   C255.777847,183.426270 255.655991,184.580032 254.933899,185.815521   C246.549103,182.325455 238.764511,178.753662 230.730682,175.090302   C230.314453,174.939972 230.147461,174.881256 229.992310,174.477112   C230.676834,172.716675 231.349533,171.301682 232.022232,169.886688   C233.734711,170.823700 235.447205,171.760712 237.659897,173.164200   C244.073318,176.511292 249.986511,179.391891 255.899719,182.272491  z"/>
<path fill="#656087" opacity="1.000000" stroke="none" d=" M56.324833,259.982300   C55.017696,260.208649 53.798428,260.459442 52.251488,260.890137   C48.716724,259.566772 45.889801,257.322723 47.446388,253.587112   C48.264481,251.623779 51.032360,249.479660 53.114445,249.259705   C56.587994,248.892746 58.663532,251.511093 58.736568,255.696320   C57.824375,257.466125 57.176922,258.666382 56.529465,259.866638   C56.529465,259.866638 56.412697,260.006775 56.324833,259.982300  z"/>
<path fill="#656087" opacity="1.000000" stroke="none" d=" M50.027138,328.371613   C49.918087,326.636688 49.986416,325.218170 49.972015,323.380890   C51.045872,322.034607 52.202461,321.107056 53.656296,320.039551   C55.346279,320.289093 56.739010,320.678589 58.489082,321.113892   C61.843445,325.007690 61.894161,328.475708 58.813652,330.538879   C55.393780,332.829346 52.366016,332.595917 50.027138,328.371613  z"/>
<path fill="#656087" opacity="1.000000" stroke="none" d=" M231.995239,169.522980   C231.349533,171.301682 230.676834,172.716675 229.617493,174.564240   C227.756378,175.274078 226.281921,175.551361 224.667023,175.575775   C223.406342,174.566986 222.286087,173.811066 221.165833,173.055145   C218.672043,169.275742 220.304184,165.969574 223.544083,164.448166   C227.686142,162.503143 230.683899,164.830582 231.995239,169.522980  z"/>
<path fill="#656087" opacity="1.000000" stroke="none" d=" M14.068273,310.597015   C13.667496,312.055054 13.217664,313.137085 12.661915,314.551575   C10.048760,317.419128 6.998619,317.850861 4.896406,315.081451   C3.523584,313.272919 2.964904,310.173920 3.408940,307.922699   C3.656722,306.666504 7.132357,304.799377 8.389155,305.266022   C10.577433,306.078461 12.174381,308.483582 14.068273,310.597015  z"/>
<path fill="#ff4f5a" opacity="1.000000" stroke="none" d=" M255.927643,181.822021   C249.986511,179.391891 244.073318,176.511292 237.933823,173.352631   C241.283752,172.386185 244.853287,171.202576 248.438141,171.154190   C251.762024,171.109314 254.493149,173.003799 255.597397,176.793640   C255.953018,178.370071 255.954285,179.870804 255.927643,181.822021  z"/>
<path fill="#656087" opacity="1.000000" stroke="none" d=" M334.479065,108.028549   C332.673981,107.070442 331.243103,106.090088 329.489197,105.056061   C329.382782,102.917206 328.874329,100.195984 330.002258,98.910278   C331.365601,97.356178 334.278290,96.102463 336.211914,96.447571   C337.716827,96.716156 339.452087,99.488647 339.840424,101.401031   C340.569092,104.989609 338.487335,107.281967 334.479065,108.028549  z"/>
<path fill="#ff4f5a" opacity="1.000000" stroke="none" d=" M56.752537,260.185150   C57.176922,258.666382 57.824375,257.466125 58.752548,256.070068   C64.423393,259.158142 69.813530,262.441986 75.518852,265.862457   C75.895508,267.714935 75.956970,269.430786 75.936218,271.569275   C69.561195,268.162506 63.268402,264.333069 56.752537,260.185150  z"/>
<path fill="#ff4f5a" opacity="1.000000" stroke="none" d=" M221.001785,173.378296   C222.286087,173.811066 223.406342,174.566986 224.377853,175.783661   C222.158524,180.773697 220.087936,185.302963 218.017334,189.832214   C216.167099,190.154236 214.316864,190.476242 212.266205,190.492783   C214.989777,184.692032 217.913757,179.196732 221.001785,173.378296  z"/>
<path fill="#8de9f7" opacity="1.000000" stroke="none" d=" M310.705231,281.973511   C310.970734,304.938721 310.977264,327.938324 310.968567,351.397308   C310.635742,350.391571 310.045685,348.927216 310.041443,347.461182   C309.979431,325.981903 309.995514,304.502380 309.962921,282.563904   C310.103973,282.072571 310.275116,282.040222 310.705231,281.973511  z"/>
<path fill="#000000" opacity="1.000000" stroke="none" d=" M376.022980,349.428375   C376.793701,349.058380 377.517517,349.037933 378.604492,349.024628   C380.285156,350.095703 381.602692,351.159668 383.266296,352.228516   C383.612427,352.233429 383.794281,352.625488 383.897156,352.815521   C384.282410,354.733521 384.564789,356.461517 385.035126,359.339539   C382.105438,357.098114 379.922272,355.427856 377.604095,353.654297   C375.875305,353.843781 373.653992,354.087219 371.218384,354.053284   C372.661407,352.443237 374.318756,351.110596 376.022980,349.428375  z"/>
<path fill="#1a1d28" opacity="1.000000" stroke="none" d=" M357.340332,187.719147   C356.883545,187.746735 356.536438,187.509369 356.509003,187.239487   C356.013702,182.369598 353.254395,180.916992 348.340881,181.839401   C349.375671,180.147110 350.809265,177.491623 352.278107,177.471970   C353.892395,177.450394 356.106689,179.558578 357.010315,181.287277   C357.894257,182.978363 357.456421,185.360336 357.340332,187.719147  z"/>
<path fill="#febf92" opacity="1.000000" stroke="none" d=" M132.490936,112.041367   C132.067459,110.975754 132.007751,109.880989 132.009521,108.109879   C132.363068,106.996689 132.655106,106.559845 133.300476,106.079201   C134.475784,105.379913 135.297775,104.724426 136.119766,104.068939   C137.060059,105.014427 138.000336,105.959908 139.065933,107.236633   C139.191238,107.567879 139.287582,107.677216 139.337585,107.730247   C137.209946,109.192924 135.032303,110.602570 132.490936,112.041367  z"/>
<path fill="#fec7ca" opacity="1.000000" stroke="none" d=" M343.747711,202.908691   C343.872192,203.189468 343.732758,203.590897 343.257324,203.992493   C343.108826,203.671585 343.296326,203.350464 343.747711,202.908691  z"/>
<path fill="#ffffff" opacity="1.000000" stroke="none" d=" M381.316650,334.768677   C377.760559,317.122528 376.321136,299.112244 377.015717,280.477173   C380.010193,288.986023 384.327301,297.784729 385.557465,306.995667   C386.535095,314.315796 383.752960,322.142426 382.603912,329.738708   C382.360107,331.350555 381.959503,332.938721 381.316650,334.768677  z"/>
<path fill="#ffffff" opacity="1.000000" stroke="none" d=" M158.163757,199.034332   C159.601517,200.639465 161.039276,202.244583 162.754593,204.427917   C163.013306,207.291794 162.994476,209.577499 162.511841,211.921143   C149.143921,211.979111 136.239838,211.979111 122.937721,211.979111   C122.937721,217.360306 122.937721,222.150314 122.572418,226.980515   C116.739441,229.683228 116.201454,230.996613 118.053452,237.332336   C117.370903,239.130096 116.763695,240.572678 116.156479,242.015259   C115.994308,235.329239 115.832130,228.643234 115.813995,221.042755   C115.927795,214.103073 115.897552,208.077820 116.151810,201.866394   C122.235352,194.128998 128.034409,186.577759 133.906433,179.432800   C134.836395,186.741684 134.841965,186.650604 141.958206,187.086212   C143.324646,187.169861 144.959305,188.003067 145.825653,189.032791   C146.281937,189.575119 145.621811,191.470627 144.985291,192.439438   C143.206512,195.146866 142.981781,197.421844 145.411362,199.992508   C150.637253,205.521957 153.095871,205.420547 158.163757,199.034332  z"/>
<path fill="#ffffff" opacity="1.000000" stroke="none" d=" M122.967773,348.912506   C120.944626,348.939758 118.921471,348.966980 116.464493,348.988464   C116.011536,318.001862 115.992409,287.021088 116.335175,255.408218   C118.739891,249.849991 120.782715,244.923843 122.895836,240.461639   C122.966690,276.921234 122.967232,312.916870 122.967773,348.912506  z"/>
<path fill="#1f0c4d" opacity="1.000000" stroke="none" d=" M133.833450,179.026520   C128.034409,186.577759 122.235352,194.128998 115.885773,202.005249   C114.411110,203.615616 113.486977,204.900940 112.200623,206.136322   C110.580643,205.396866 109.322884,204.707352 108.065132,204.017838   C109.550308,200.106888 111.054634,196.203049 112.514633,192.282730   C113.697617,189.106247 114.827316,185.909927 116.320053,182.133774   C119.475548,176.027435 122.291634,170.509735 125.107727,164.992020   C128.430389,168.204224 131.753067,171.416443 135.071564,175.315277   C134.656067,177.010117 134.244751,178.018311 133.833450,179.026520  z"/>
<path fill="#ffffff" opacity="1.000000" stroke="none" d=" M124.914268,164.645279   C122.291634,170.509735 119.475548,176.027435 116.389145,181.743408   C116.077904,175.947540 116.036972,169.953430 115.979919,163.494446   C118.882805,163.452560 121.801804,163.875549 124.914268,164.645279  z"/>
<path fill="#1f2232" opacity="1.000000" stroke="none" d=" M107.890961,204.313629   C109.322884,204.707352 110.580643,205.396866 112.039658,206.541061   C113.312439,211.690933 114.383949,216.386093 115.455460,221.081268   C111.437462,217.413528 107.419472,213.745773 102.982544,209.695618   C104.877731,207.659531 106.297264,206.134460 107.890961,204.313629  z"/>
<path fill="#ff4f5a" opacity="1.000000" stroke="none" d=" M122.825531,239.997681   C120.782715,244.923843 118.739891,249.849991 116.366699,254.947998   C116.031212,251.057678 116.026108,246.995499 116.088745,242.474289   C116.763695,240.572678 117.370903,239.130096 118.384567,237.368011   C120.204231,237.701035 121.617447,238.353546 123.001801,239.258606   C122.923805,239.673340 122.874664,239.835510 122.825531,239.997681  z"/>
<path fill="#8de9f7" opacity="1.000000" stroke="none" d=" M115.504181,221.073090   C114.383949,216.386093 113.312439,211.690933 112.401878,206.591019   C113.486977,204.900940 114.411110,203.615616 115.601288,202.191437   C115.897552,208.077820 115.927795,214.103073 115.799431,220.574066   C115.640831,221.019836 115.552902,221.064926 115.504181,221.073090  z"/>
<path fill="#ff4f5a" opacity="1.000000" stroke="none" d=" M230.979919,175.181885   C238.764511,178.753662 246.549103,182.325455 254.667099,186.044495   C254.159348,194.292770 253.318192,202.393784 251.802704,210.754730   C250.235107,211.343018 249.346298,211.684219 248.447845,211.997833   C237.681000,215.755997 227.448151,225.710007 229.180984,238.744629   C229.960342,244.607162 232.436798,250.244080 233.705963,256.096100   C231.329407,256.319977 229.390076,256.431122 226.844269,256.576996   C226.844269,272.605408 226.844269,288.306305 226.477081,304.001465   C223.772690,303.009216 221.435486,302.022736 219.098297,301.036224   C219.070099,267.325195 219.041916,233.614182 219.378387,199.344360   C221.733948,197.125214 223.553223,195.172379 225.758911,193.878036   C228.559601,192.234482 229.655121,190.864944 228.286880,187.287888   C226.674774,183.073212 226.566925,178.425339 230.979919,175.181885  z"/>
<path fill="#ffffff" opacity="1.000000" stroke="none" d=" M178.983139,348.516144   C175.626938,348.981171 172.283966,348.979370 168.476715,348.485291   C168.011124,312.206635 168.021912,276.420258 168.000259,240.633896   C167.994522,231.168823 167.888840,221.703796 167.906372,211.868286   C168.045044,210.998154 168.106384,210.498489 168.167725,209.998825   C168.945801,210.566101 169.723892,211.133392 170.791260,212.202927   C172.356735,214.727310 173.441193,216.913712 174.980591,218.710266   C175.913208,219.798676 177.550262,220.283478 178.870850,221.039459   C178.912674,263.376068 178.954514,305.712708 178.983139,348.516144  z"/>
<path fill="#ffffff" opacity="1.000000" stroke="none" d=" M219.054810,301.502502   C221.435486,302.022736 223.772690,303.009216 226.543594,304.466309   C226.977783,319.592072 226.978241,334.247284 226.978714,348.902466   C224.623550,348.933075 222.268372,348.963684 219.471756,348.988647   C219.023972,333.311584 219.017654,317.640167 219.054810,301.502502  z"/>
<path fill="#8de9f7" opacity="1.000000" stroke="none" d=" M177.237732,205.893433   C174.914688,204.477661 172.781265,203.051666 171.065796,201.231750   C169.773529,199.860764 169.016815,197.984970 167.978363,195.564697   C167.992645,193.297119 168.033234,191.797836 168.110825,190.300476   C168.476379,183.245041 172.764175,180.852325 178.826828,184.437332   C182.248215,186.460480 185.521988,188.733261 188.862259,190.893600   C185.885605,190.893600 182.908951,190.893600 180.018600,190.893600   C179.157928,196.182678 178.382431,200.948318 177.237732,205.893433  z"/>
<path fill="#ff4f5a" opacity="1.000000" stroke="none" d=" M189.296112,190.930145   C185.521988,188.733261 182.248215,186.460480 178.826828,184.437332   C172.764175,180.852325 168.476379,183.245041 168.110825,190.300476   C168.033234,191.797836 167.992645,193.297119 167.871658,195.208618   C166.257431,192.965836 164.706573,190.309937 163.507050,187.098511   C163.962540,184.357193 164.066711,182.171402 164.549500,179.986725   C166.634109,180.155319 168.340103,180.322784 169.914047,180.477310   C171.026886,178.877655 172.043442,177.416428 173.372665,176.076111   C175.137177,177.184158 176.588989,178.171310 178.040817,179.158463   C183.796127,182.879135 189.551437,186.599823 195.489410,190.573395   C193.691376,190.873093 191.710678,190.919891 189.296112,190.930145  z"/>
<path fill="#ffffff" opacity="1.000000" stroke="none" d=" M230.730682,175.090302   C226.566925,178.425339 226.674774,183.073212 228.286880,187.287888   C229.655121,190.864944 228.559601,192.234482 225.758911,193.878036   C223.553223,195.172379 221.733948,197.125214 219.421249,198.875153   C218.987534,196.062943 218.875626,193.161148 218.390533,190.045792   C220.087936,185.302963 222.158524,180.773697 224.518280,176.036545   C226.281921,175.551361 227.756378,175.274078 229.605652,174.909668   C230.147461,174.881256 230.314453,174.939972 230.730682,175.090302  z"/>
<path fill="#1a1d28" opacity="1.000000" stroke="none" d=" M179.052536,220.738235   C177.550262,220.283478 175.913208,219.798676 174.980591,218.710266   C173.441193,216.913712 172.356735,214.727310 171.036285,212.357788   C172.893402,210.840759 174.794800,209.671127 176.891510,208.227020   C178.908722,211.859283 181.975769,212.655273 185.966766,211.824448   C189.184921,211.154541 192.490585,210.904877 197.221085,210.273361   C190.411713,214.121063 184.822968,217.279037 179.052536,220.738235  z"/>
<path fill="#17a2b8" opacity="1.000000" stroke="none" d=" M227.446838,348.937347   C226.978241,334.247284 226.977783,319.592072 226.910797,304.472046   C226.844269,288.306305 226.844269,272.605408 226.844269,256.576996   C229.390076,256.431122 231.329407,256.319977 234.158875,256.098175   C238.988876,255.980728 242.928726,255.973938 246.868591,255.967133   C246.554993,260.834564 246.241409,265.701996 245.902847,270.957062   C247.845886,271.216156 249.573624,271.446533 251.664352,272.280029   C252.018951,298.210052 252.010559,323.536926 252.002182,348.863831   C243.973114,348.899963 235.944046,348.936096 227.446838,348.937347  z"/>
<path fill="#ffffff" opacity="1.000000" stroke="none" d=" M246.927185,255.529053   C242.928726,255.973938 238.988876,255.980728 234.596100,255.985443   C232.436798,250.244080 229.960342,244.607162 229.180984,238.744629   C227.448151,225.710007 237.681000,215.755997 248.447845,211.997833   C249.346298,211.684219 250.235107,211.343018 251.506149,211.029419   C251.198654,218.162491 250.597946,225.290237 249.805130,232.396545   C248.959976,239.971909 247.933228,247.527008 246.927185,255.529053  z"/>
<path fill="#8de9f7" opacity="1.000000" stroke="none" d=" M252.406342,348.914917   C252.010559,323.536926 252.018951,298.210052 252.054642,272.410156   C253.118195,271.931824 254.154465,271.926514 255.578690,271.946503   C255.995819,297.299805 256.024994,322.627838 256.061951,348.412109   C254.983322,348.900940 253.896912,348.933502 252.406342,348.914917  z"/>
<path fill="#51cbf7" opacity="1.000000" stroke="none" d=" M270.299103,186.151337   C279.277100,186.151489 287.790314,186.151489 297.263824,186.151489   C293.994293,189.122620 272.059265,189.887039 264.466248,186.973145   C266.255615,186.699158 268.044983,186.425171 270.299103,186.151337  z"/>
<path fill="#51cbf7" opacity="1.000000" stroke="none" d=" M298.744812,172.109467   C298.121033,172.946365 297.334717,173.770508 296.540924,173.777756   C287.386078,173.861572 278.230011,173.833191 269.074554,173.787033   C268.496521,173.784103 267.920502,173.386185 267.218323,173.125549   C269.611359,170.889633 289.902588,170.104950 298.744812,172.109467  z"/>
<path fill="#2e7dfd" opacity="1.000000" stroke="none" d=" M294.902161,252.930969   C295.612305,250.757751 296.126678,248.490829 297.105621,246.446335   C297.697998,245.209152 299.010468,244.316742 299.999390,243.269440   C300.368073,243.543655 300.736725,243.817886 301.105408,244.092102   C301.105408,245.662811 301.105408,247.233536 301.111572,249.586670   C300.424133,253.908524 299.730560,257.447968 299.036987,260.987396   C297.297272,261.044525 295.557587,261.101624 293.537170,260.737610   C293.805023,257.854675 294.353607,255.392822 294.902161,252.930969  z"/>
<path fill="#2e7dfd" opacity="1.000000" stroke="none" d=" M256.105194,260.880554   C254.581070,261.140533 253.056946,261.400543 250.630035,261.814545   C252.825317,255.176224 251.511536,248.355011 255.485443,243.448654   C256.268646,243.695145 257.051880,243.941635 257.835083,244.188126   C257.835083,245.559494 257.835083,246.930862 257.919891,249.036163   C257.371521,253.473572 256.738342,257.177063 256.105194,260.880554  z"/>
<path fill="#327EFB" opacity="1.000000" stroke="none" d=" M284.846924,248.420685   C286.297821,247.595612 287.748718,246.770538 289.833862,245.584793   C289.833862,248.670883 289.833862,250.478928 289.915680,253.021484   C289.621094,256.185150 289.244690,258.614288 288.868286,261.043396   C287.123169,261.099762 285.378052,261.156097 283.338074,260.727905   C283.644440,256.302429 284.245667,252.361557 284.846924,248.420685  z"/>
<path fill="#327EFB" opacity="1.000000" stroke="none" d=" M262.113312,250.973145   C262.712097,250.406891 263.772003,249.886261 263.833313,249.266815   C264.178772,245.775757 266.081116,245.946960 268.659912,246.872910   C268.425598,248.799591 268.212524,250.551468 268.027710,253.090637   C267.758453,255.571838 267.460907,257.265747 266.886169,259.112976   C266.445435,259.858002 266.281921,260.449738 266.118408,261.041443   C264.065735,261.819183 262.164520,262.235962 261.489502,258.736206   C261.547333,255.843491 261.830322,253.408310 262.113312,250.973145  z"/>
<path fill="#2e7dfd" opacity="1.000000" stroke="none" d=" M277.817963,260.118286   C276.433777,260.522461 275.049591,260.926636 273.347839,260.803162   C273.307526,258.180115 273.584778,256.084717 273.862030,253.989304   C274.261383,251.580521 274.358002,249.062332 275.174133,246.804214   C275.659637,245.460983 277.276886,244.526825 278.385315,243.408752   C278.750092,243.755173 279.114868,244.101593 279.479645,244.448013   C279.291992,246.359177 279.104340,248.270340 278.966461,251.012329   C278.616791,254.601517 278.217377,257.359894 277.817963,260.118286  z"/>
<path fill="#327EFB" opacity="1.000000" stroke="none" d=" M309.995392,260.625641   C308.416077,260.687500 306.836761,260.749329 305.132812,260.011902   C305.326965,256.842560 305.645721,254.472549 305.964478,252.102524   C308.249176,250.805450 306.039185,245.029190 311.762909,246.798477   C311.540619,248.773758 311.314636,250.781769 311.117310,253.554092   C310.762451,256.420807 310.378937,258.523224 309.995392,260.625641  z"/>
<path fill="#ff4f5a" opacity="1.000000" stroke="none" d=" M270.239319,216.017929   C273.198181,217.067993 273.399261,218.920776 271.634247,221.187836   C268.705658,224.949387 265.114197,226.571335 260.360748,223.806427   C261.956482,221.421295 263.653839,219.592697 265.726532,217.806839   C267.481018,217.239029 268.860168,216.628479 270.239319,216.017929  z"/>
<path fill="#ff4f5a" opacity="1.000000" stroke="none" d=" M293.731201,218.096451   C292.832489,222.342209 290.040222,224.545517 285.640686,225.549789   C285.350525,225.771362 285.372833,225.743225 285.372833,225.743225   C284.055786,225.306366 282.738708,224.869522 281.240356,223.849106   C282.745422,221.201706 284.431732,219.137878 286.323792,217.074738   C286.529510,217.075409 286.941956,217.049118 287.182678,217.361923   C289.526001,217.815292 291.628601,217.955872 293.731201,218.096451  z"/>
<path fill="#ff4f5a" opacity="1.000000" stroke="none" d=" M277.920227,260.433838   C278.217377,257.359894 278.616791,254.601517 279.028595,251.415527   C280.732361,250.129242 282.423767,249.270554 284.481018,248.416290   C284.245667,252.361557 283.644440,256.302429 283.012634,260.577637   C281.328857,260.857788 279.675659,260.803589 277.920227,260.433838  z"/>
<path fill="#ff4f5a" opacity="1.000000" stroke="none" d=" M305.688171,251.934509   C305.645721,254.472549 305.326965,256.842560 305.000519,259.562500   C303.225891,260.351501 301.458984,260.790619 299.364502,261.108582   C299.730560,257.447968 300.424133,253.908524 301.063660,250.000885   C302.496033,249.311218 303.982422,248.989777 305.468842,248.668304   C305.449860,249.701035 305.430878,250.733765 305.688171,251.934509  z"/>
<path fill="#ff4f5a" opacity="1.000000" stroke="none" d=" M313.332825,216.958542   C318.001343,220.012405 315.177979,222.988754 312.445129,224.408646   C310.015961,225.670761 306.634827,225.100571 303.505249,224.795105   C304.978027,222.384979 306.619385,220.518845 308.642334,218.731842   C310.460205,218.193497 311.896515,217.576019 313.332825,216.958542  z"/>
<path fill="#3bc9f8" opacity="1.000000" stroke="none" d=" M287.964020,180.067322   C291.843597,180.067368 295.229370,180.067368 298.615173,180.067368   C298.605804,180.530991 298.596436,180.994598 298.587097,181.458221   C287.840729,181.458221 277.094360,181.458221 266.347961,181.458221   C266.319427,180.994568 266.290894,180.530930 266.262329,180.067276   C273.331635,180.067276 280.400909,180.067276 287.964020,180.067322  z"/>
<path fill="#ff4f5a" opacity="1.000000" stroke="none" d=" M262.207886,250.646759   C261.830322,253.408310 261.547333,255.843491 261.183105,258.602051   C260.946045,262.078003 258.898743,261.783447 256.429565,261.095947   C256.738342,257.177063 257.371521,253.473572 258.053741,249.355057   C259.502655,249.400131 260.902557,249.860245 262.207886,250.646759  z"/>
<path fill="#17a2b8" opacity="1.000000" stroke="none" d=" M308.260742,218.652710   C306.619385,220.518845 304.978027,222.384979 303.191223,224.541779   C299.386566,219.915100 300.345612,216.165695 306.774841,212.267899   C307.565948,214.582443 307.913330,216.617584 308.260742,218.652710  z"/>
<path fill="#17a2b8" opacity="1.000000" stroke="none" d=" M286.118073,217.074051   C284.431732,219.137878 282.745422,221.201706 281.002747,223.595245   C276.908478,219.095337 277.914124,215.083801 284.600403,211.294632   C285.379486,213.428299 285.748779,215.251175 286.118073,217.074051  z"/>
<path fill="#17a2b8" opacity="1.000000" stroke="none" d=" M265.351196,217.764099   C263.653839,219.592697 261.956482,221.421295 260.124939,223.552734   C256.135071,219.129440 257.297363,214.804581 263.960205,211.168213   C264.747162,213.552246 265.049164,215.658188 265.351196,217.764099  z"/>
<path fill="#ff4f5a" opacity="1.000000" stroke="none" d=" M310.222687,260.898132   C310.378937,258.523224 310.762451,256.420807 311.084473,253.981476   C312.520081,253.297684 314.017212,252.950806 316.297028,252.422607   C315.752899,255.791336 315.329224,258.414185 314.826508,261.526520   C313.214142,261.395386 311.832062,261.283020 310.222687,260.898132  z"/>
<path fill="#3bc9f8" opacity="1.000000" stroke="none" d=" M274.046814,192.932312   C270.508667,192.932266 267.459045,192.932266 264.409393,192.932266   C264.409149,192.475494 264.408905,192.018707 264.408661,191.561935   C272.472931,191.561935 280.537231,191.561935 288.601501,191.561935   C288.633087,192.018738 288.664642,192.475555 288.696228,192.932358   C283.975952,192.932358 279.255646,192.932358 274.046814,192.932312  z"/>
<path fill="#3bc9f8" opacity="1.000000" stroke="none" d=" M289.411713,175.964386   C290.399139,176.144302 290.952972,176.315308 291.506805,176.486328   C291.482056,176.775772 291.457275,177.065231 291.432526,177.354675   C283.421417,177.354675 275.410339,177.354675 267.399231,177.354675   C267.373505,176.888275 267.347748,176.421890 267.321991,175.955490   C274.540710,175.955490 281.759399,175.955490 289.411713,175.964386  z"/>
<path fill="#6f5f7c" opacity="1.000000" stroke="none" d=" M265.726532,217.806854   C265.049164,215.658188 264.747162,213.552246 264.318542,211.057739   C266.341370,210.782623 268.490784,210.896118 270.640228,211.009613   C270.521362,212.458633 270.402466,213.907669 270.261475,215.687317   C268.860168,216.628479 267.481018,217.239029 265.726532,217.806854  z"/>
<path fill="#6f5f7c" opacity="1.000000" stroke="none" d=" M308.642303,218.731842   C307.913330,216.617584 307.565948,214.582443 307.117615,212.163147   C309.130463,211.776779 311.280090,211.585098 313.320251,211.971512   C313.635162,212.031174 313.447510,214.744339 313.412537,216.594452   C311.896515,217.576019 310.460205,218.193497 308.642303,218.731842  z"/>
<path fill="#ff4f5a" opacity="1.000000" stroke="none" d=" M289.049103,261.366608   C289.244690,258.614288 289.621094,256.185150 290.050385,253.341187   C291.437225,252.944672 292.771179,252.962982 294.503662,252.956116   C294.353607,255.392822 293.805023,257.854675 293.187561,260.631317   C291.822418,261.194000 290.526184,261.441895 289.049103,261.366608  z"/>
<path fill="#ff4f5a" opacity="1.000000" stroke="none" d=" M267.163391,258.959656   C267.460907,257.265747 267.758453,255.571838 268.036682,253.492828   C269.529724,253.158813 271.042114,253.209900 272.322113,253.908783   C271.758759,256.839081 271.427795,259.121613 271.096832,261.404114   C269.965027,261.394440 268.833191,261.384766 267.355957,260.853699   C267.061493,259.874756 267.112457,259.417206 267.163391,258.959656  z"/>
<path fill="#23C6F9" opacity="1.000000" stroke="none" d=" M291.683228,195.686920   C293.248688,195.819809 294.353333,195.952728 295.457947,196.085663   C295.447327,196.305908 295.436676,196.526169 295.426056,196.746429   C284.850159,196.746429 274.274292,196.746429 263.698425,196.746429   C263.690613,196.393265 263.682800,196.040115 263.674988,195.686951   C272.857452,195.686951 282.039917,195.686951 291.683228,195.686920  z"/>
<path fill="#ff4f5a" opacity="1.000000" stroke="none" d=" M293.848694,217.717529   C291.628601,217.955872 289.526001,217.815292 287.374573,217.089294   C288.918243,214.927795 290.510773,213.351715 292.103302,211.775635   C292.724274,213.629959 293.345245,215.484283 293.848694,217.717529  z"/>
<path fill="#615D89" opacity="1.000000" stroke="none" d=" M291.886536,211.488739   C290.510773,213.351715 288.918243,214.927795 287.133850,216.776489   C286.941956,217.049118 286.529510,217.075409 286.323792,217.074738   C285.748779,215.251175 285.379486,213.428299 284.939392,211.213165   C287.135651,210.947891 289.402679,211.074875 291.886536,211.488739  z"/>
<path fill="#febf92" opacity="1.000000" stroke="none" d=" M285.277161,226.134857   C285.372833,225.743225 285.350525,225.771362 285.331421,225.770523   C287.394348,226.313965 289.476410,226.858246 291.854553,227.654678   C292.105652,228.669098 292.060608,229.431366 292.004852,230.573639   C288.968781,230.638947 285.244354,231.399948 285.277161,226.134857  z"/>
<path fill="#8de9f7" opacity="1.000000" stroke="none" d=" M271.263489,261.564087   C271.427795,259.121613 271.758759,256.839081 272.348938,254.290512   C272.816986,254.012024 273.025848,253.999603 273.548370,253.988251   C273.584778,256.084717 273.307526,258.180115 272.990967,260.677368   C272.444519,261.294159 271.937317,261.509125 271.263489,261.564087  z"/>
<path fill="#8de9f7" opacity="1.000000" stroke="none" d=" M266.886169,259.112976   C267.112457,259.417206 267.061493,259.874756 266.969574,260.674561   C266.928589,261.016815 266.523682,261.046631 266.321045,261.044037   C266.281921,260.449738 266.445435,259.858002 266.886169,259.112976  z"/>
<path fill="#ff4f5a" opacity="1.000000" stroke="none" d=" M109.129166,115.978104   C103.235016,119.703362 102.962921,119.591370 98.522697,114.730614   C93.367790,109.087471 88.145050,103.499611 82.763344,98.074669   C81.294540,96.594063 79.148705,95.785103 77.174072,94.358658   C80.455498,92.790642 83.876427,91.531891 87.881165,90.430481   C91.083878,91.500664 93.702774,92.413483 96.600197,93.423393   C96.352310,90.630440 96.196510,88.875038 96.184258,87.124237   C96.534431,87.130165 96.695450,87.045265 96.810860,86.874146   C99.557251,86.249481 102.303642,85.624825 105.555161,85.419281   C106.373863,88.559494 106.687439,91.280579 106.919189,94.407516   C106.939766,98.546371 107.042168,102.279381 107.218124,106.390877   C107.904175,109.838943 108.516670,112.908524 109.129166,115.978104  z"/>
<path fill="#fec7ca" opacity="1.000000" stroke="none" d=" M107.001007,94.001663   C106.687439,91.280579 106.373863,88.559494 105.976044,85.447327   C112.701408,85.365562 119.511032,85.674881 126.772392,85.991936   C128.233612,89.307426 129.243103,92.615189 129.889191,96.346054   C122.017548,95.846657 114.509277,94.924156 107.001007,94.001663  z"/>
<path fill="#febf92" opacity="1.000000" stroke="none" d=" M88.987167,83.919792   C88.719276,83.472084 88.451378,83.024376 88.127625,81.921631   C86.993149,76.411400 91.007935,76.159348 93.862686,74.858925   C94.564278,76.667343 95.265869,78.475769 95.916931,81.026962   C93.573318,82.486420 91.280243,83.203110 88.987167,83.919792  z"/>
<path fill="#febf92" opacity="1.000000" stroke="none" d=" M96.040710,87.119629   C96.196510,88.875038 96.352310,90.630440 96.600197,93.423393   C93.702774,92.413483 91.083878,91.500664 88.227280,90.327705   C88.215179,88.612617 88.440781,87.157661 89.145020,85.509262   C91.762688,85.917091 93.901695,86.518364 96.040710,87.119629  z"/>
<path fill="#4b5369" opacity="1.000000" stroke="none" d=" M93.762695,74.542099   C91.007935,76.159348 86.993149,76.411400 88.038475,81.675446   C87.392242,80.493294 86.222885,78.865990 86.323631,77.321533   C86.423355,75.792870 87.497849,73.544579 88.706627,73.082855   C90.021355,72.580643 91.983078,73.772209 93.762695,74.542099  z"/>
<path fill="#000000" opacity="1.000000" stroke="none" d=" M96.184258,87.124237   C93.901695,86.518364 91.762688,85.917091 89.275345,85.165085   C88.913208,84.830940 88.899399,84.647514 88.936378,84.191940   C91.280243,83.203110 93.573318,82.486420 95.922066,81.396454   C96.256042,82.671715 96.534340,84.320259 96.811752,86.421471   C96.695450,87.045265 96.534431,87.130165 96.184258,87.124237  z"/>
<path fill="#ffffff" opacity="1.000000" stroke="none" d=" M178.392120,178.959564   C176.588989,178.171310 175.137177,177.184158 173.348267,175.687119   C172.116104,169.501099 168.059616,167.261459 163.778961,170.080032   C161.101929,171.842728 161.270920,176.114273 164.170883,179.985626   C164.066711,182.171402 163.962540,184.357193 163.514099,186.744263   C160.163300,182.444580 157.156799,177.943604 153.989136,173.123230   C153.478928,166.476929 157.417755,162.675537 162.369766,160.398911   C167.869446,157.870499 172.747437,159.854919 176.934143,164.336777   C181.180908,168.882919 180.592438,173.650009 178.392120,178.959564  z"/>
<path fill="#8de9f7" opacity="1.000000" stroke="none" d=" M133.906433,179.432800   C134.244751,178.018311 134.656067,177.010117 135.151703,175.677963   C137.982880,177.854279 140.865967,180.222366 143.447342,182.883148   C148.372437,187.959747 153.125519,193.203217 158.056885,198.705872   C153.095871,205.420547 150.637253,205.521957 145.411362,199.992508   C142.981781,197.421844 143.206512,195.146866 144.985291,192.439438   C145.621811,191.470627 146.281937,189.575119 145.825653,189.032791   C144.959305,188.003067 143.324646,187.169861 141.958206,187.086212   C134.841965,186.650604 134.836395,186.741684 133.906433,179.432800  z"/>
<path fill="#ff4f5a" opacity="1.000000" stroke="none" d=" M168.067810,209.673798   C168.106384,210.498489 168.045044,210.998154 167.500229,211.844971   C165.669724,212.082474 164.322678,211.972839 162.975647,211.863190   C162.994476,209.577499 163.013306,207.291794 163.050934,204.582825   C164.702438,205.889297 166.335159,207.619049 168.067810,209.673798  z"/>
<path fill="#17a2b8" opacity="1.000000" stroke="none" d=" M162.511826,211.921143   C164.322678,211.972839 165.669724,212.082474 167.422913,212.215439   C167.888840,221.703796 167.994522,231.168823 168.000259,240.633896   C168.021912,276.420258 168.011124,312.206635 168.022339,348.452728   C153.323318,348.935242 138.614426,348.958008 123.436646,348.946655   C122.967232,312.916870 122.966690,276.921234 122.895836,240.461639   C122.874664,239.835510 122.923805,239.673340 123.298805,238.972748   C123.395683,234.602997 123.166702,230.771652 122.937721,226.940323   C122.937721,222.150314 122.937721,217.360306 122.937721,211.979111   C136.239838,211.979111 149.143921,211.979111 162.511826,211.921143  z"/>
<path fill="#ffffff" opacity="1.000000" stroke="none" d=" M340.839539,228.053101   C341.846893,226.257568 342.854248,224.462036 344.008972,222.340942   C346.436401,227.370392 348.716370,232.725418 350.992859,238.460358   C348.299896,239.223450 345.610443,239.606613 342.465271,239.533585   C341.619568,235.402618 341.229584,231.727859 340.839539,228.053101  z"/>
<path fill="#fefdfe" opacity="1.000000" stroke="none" d=" M170.394135,69.008148   C174.246262,73.459480 176.608978,78.220131 176.220581,84.427277   C172.748688,99.554550 161.034790,104.965523 147.197311,97.970825   C135.345001,85.810402 137.181427,72.707016 151.687210,65.139908   C158.602905,63.541286 164.727509,64.424194 170.394135,69.008148  z"/>
<path fill="#6c767e" opacity="1.000000" stroke="none" d=" M106.919189,94.407516   C114.509277,94.924156 122.017548,95.846657 129.963928,96.718521   C132.162491,98.957520 133.922928,101.247154 135.901566,103.802864   C135.297775,104.724426 134.475784,105.379913 132.835144,106.023811   C123.725853,106.012283 115.435219,106.012337 107.144577,106.012390   C107.042168,102.279381 106.939766,98.546371 106.919189,94.407516  z"/>
<path fill="#CBC9D8" opacity="1.000000" stroke="none" d=" M340.595367,228.276855   C341.229584,231.727859 341.619568,235.402618 342.053864,239.502930   C339.677856,240.265213 337.257599,240.601944 334.408691,240.730377   C333.980042,240.522079 333.950592,240.117905 333.950592,240.117905   C336.084106,236.245483 338.217651,232.373047 340.595367,228.276855  z"/>
<path fill="#febf92" opacity="1.000000" stroke="none" d=" M333.522339,240.091919   C333.950592,240.117905 333.980042,240.522079 333.999695,240.722916   C334.000244,241.674957 333.981140,242.426163 333.942993,243.549789   C331.388794,243.515259 328.853638,243.108292 326.117432,242.370789   C328.308929,241.382141 330.701508,240.724045 333.522339,240.091919  z"/>
<path fill="#ffffff" opacity="1.000000" stroke="none" d=" M107.218124,106.390877   C115.435219,106.012337 123.725853,106.012283 132.481812,106.067612   C132.655106,106.559845 132.363068,106.996689 131.989624,107.697876   C124.566246,110.635811 117.224274,113.309402 109.505730,115.980545   C108.516670,112.908524 107.904175,109.838943 107.218124,106.390877  z"/>
<path fill="#ffffff" opacity="1.000000" stroke="none" d=" M353.692322,192.628693   C353.911499,192.605118 354.312531,192.806732 354.492310,193.141876   C354.138702,193.134888 354.006439,192.994385 353.692322,192.628693  z"/>
<path fill="#656087" opacity="1.000000" stroke="none" d=" M122.572418,226.980515   C123.166702,230.771652 123.395683,234.602997 123.327652,238.720200   C121.617447,238.353546 120.204231,237.701035 118.459900,237.012817   C116.201454,230.996613 116.739441,229.683228 122.572418,226.980515  z"/>
<path fill="#656087" opacity="1.000000" stroke="none" d=" M164.549500,179.986725   C161.270920,176.114273 161.101929,171.842728 163.778961,170.080032   C168.059616,167.261459 172.116104,169.501099 173.035583,175.566223   C172.043442,177.416428 171.026886,178.877655 169.914047,180.477310   C168.340103,180.322784 166.634109,180.155319 164.549500,179.986725  z"/>
</svg>