<svg xmlns="http://www.w3.org/2000/svg" xmlns:xlink="http://www.w3.org/1999/xlink" version="1.1" id="Layer_1" x="0px" y="0px" width="100%" viewBox="0 0 360 317" enable-background="new 0 0 360 317" xml:space="preserve">
<path fill="#ffffff" opacity="1.000000" stroke="none" d=" M50.000000,318.000000   C33.675083,318.000000 17.350168,318.000000 1.018939,318.000000   C1.012626,212.396210 1.012626,106.792412 1.012626,1.094308   C120.999969,1.094308 240.999969,1.094308 361.000000,1.094308   C361.000000,41.771297 361.000000,82.416992 360.704407,123.832062   C357.616333,122.018539 354.934113,119.040916 350.088928,122.616096   C349.135193,119.766167 346.924530,116.377617 347.784515,115.162895   C351.176331,110.371803 347.923676,107.966843 345.050842,105.705261   C341.926697,103.245865 338.604126,101.783997 335.150146,106.141266   C332.428650,109.574440 327.380493,108.404419 325.769226,104.361343   C323.868561,99.592079 320.327271,100.747459 316.832947,101.657661   C313.263519,102.587425 310.450684,104.064774 311.154846,108.667542   C311.339661,109.875603 310.665649,111.548462 309.816650,112.499664   C308.669952,113.784416 306.972992,114.578064 305.466370,115.613930   C297.828735,113.209732 297.656158,113.266182 294.967377,119.103279   C292.689880,124.047661 293.645752,126.631424 298.937988,129.837372   C298.570343,130.890671 298.203278,131.944138 297.526672,132.866013   C282.165741,119.954750 264.766846,115.161316 244.862198,117.615700   C244.862198,113.826378 244.862198,110.181267 245.120087,106.342331   C246.616531,104.451065 247.855087,102.753647 249.525574,101.031662   C255.698380,100.139420 261.443115,99.296364 267.179260,98.398415   C276.405334,96.954140 285.625732,95.473602 295.020142,94.351128   C297.836395,97.952362 301.300598,97.903137 304.327942,95.980331   C306.038757,94.893707 307.716705,92.314949 307.763519,90.368698   C307.844299,87.011543 305.944275,84.261505 301.863586,83.525864   C301.191315,80.789566 300.674774,78.397247 300.616974,76.002579   C310.230072,76.000031 319.384583,75.975334 328.538727,76.016838   C330.829834,76.027222 332.157379,75.758537 333.185913,72.970261   C336.231567,64.714165 337.639069,56.538765 336.080841,47.732548   C334.217255,37.200539 330.006927,28.486639 320.303131,23.044592   C306.797852,15.470605 277.677765,18.221590 268.260712,35.090935   C265.819000,39.464954 262.245270,42.867538 256.772919,44.208660   C249.277023,46.045685 242.280029,45.086132 235.178528,42.684555   C227.519501,40.094444 215.042679,44.863228 210.730240,51.710312   C205.619354,59.825153 207.719681,67.859901 210.480728,75.933495   C239.155136,75.933495 267.445923,75.933495 295.850769,76.344727   C296.314423,79.448021 296.663971,82.140083 296.704468,84.974220   C295.560059,86.396942 294.724762,87.677589 293.485229,88.993683   C289.758057,89.685928 286.443726,90.390404 283.110657,90.990891   C271.615540,93.061821 260.113861,95.096466 248.386780,96.885818   C246.002579,93.661476 243.542023,91.884460 239.652969,93.762169   C233.732513,96.620697 233.808380,101.786766 239.971756,107.557404   C239.993530,111.477493 239.993530,114.942673 239.993530,118.456764   C236.815079,119.559555 233.460663,120.061775 230.885773,121.751724   C225.167740,125.504547 220.123810,124.221222 214.996201,120.472977   C213.660522,117.379120 213.755127,113.195671 209.595306,113.172012   C207.113739,113.157890 203.402725,113.893845 202.442429,115.559700   C201.201935,117.711586 202.156784,121.129013 202.031769,124.301804   C201.248688,125.698868 200.600113,126.795616 199.488098,127.939301   C192.444504,127.986221 185.864365,127.986221 178.919327,127.986221   C178.919327,133.355316 178.919327,138.142990 178.547516,142.954819   C175.676315,141.964264 173.176865,140.949722 170.677567,139.934799   C159.124588,135.243225 147.571655,130.551559 136.002167,125.499542   C133.693436,122.095757 131.915024,118.388962 129.008926,116.138206   C121.464287,110.294952 112.955605,109.213249 103.671234,113.087051   C100.556168,111.983231 97.814262,110.954216 95.040955,109.519630   C94.776390,103.623695 92.487617,100.873619 88.260406,101.004616   C84.061638,101.134735 82.265350,103.438431 81.976952,109.049896   C81.960213,109.375534 81.883614,109.698097 81.480820,110.013474   C77.361145,105.659798 73.750992,101.167015 69.794418,97.003418   C63.444588,90.321342 54.640881,89.218254 46.281822,88.191963   C36.592377,87.002327 27.289970,89.043518 19.192282,95.249954   C6.363874,105.082214 5.549355,129.689453 10.922966,141.903397   C12.018208,144.392838 13.347452,145.087357 16.003794,145.071350   C33.976589,144.963043 51.950607,145.058502 69.957336,145.549255   C69.986450,152.626984 69.982460,159.243500 69.532867,165.920898   C55.391064,167.376572 41.694870,168.771362 27.659756,169.998047   C23.753780,167.185760 19.987120,166.845200 17.788744,170.989548   C16.579718,173.268768 16.402611,176.984085 17.456097,179.270569   C18.190866,180.865326 22.424730,182.440659 23.988983,181.696976   C26.500313,180.503052 28.096077,177.383286 30.495382,175.029877   C34.311989,174.635330 37.711674,174.285431 41.111980,173.941666   C50.700230,172.972336 60.288734,172.005554 69.931107,171.501266   C69.974998,200.945374 69.964928,229.925964 69.588585,259.150146   C69.222313,273.814484 69.222313,288.235229 69.222313,303.138763   C71.983971,303.138763 74.445755,303.138763 76.647873,303.430878   C70.947861,304.544067 65.507530,305.365143 59.787567,306.033508   C58.688217,304.951050 57.868511,304.021301 57.488327,303.052734   C59.184704,303.013855 60.441555,303.013855 61.679028,303.013855   C61.679028,283.052521 61.679028,263.673920 61.679028,244.354309   C49.311401,244.354309 37.267048,244.354309 24.612530,244.354309   C24.612530,264.024017 24.612530,283.341339 24.612530,302.994202   C33.056309,302.994202 41.515114,302.994202 49.984657,303.460571   C49.996929,308.617981 49.998463,313.308990 50.000000,318.000000  z"/>
<path fill="#ffffff" opacity="1.000000" stroke="none" d=" M361.000000,135.000000   C361.000000,195.943314 361.000000,256.886627 361.000000,318.000000   C265.312500,318.000000 169.624908,318.000000 73.476349,317.584503   C80.739449,316.113434 88.471153,315.110565 96.185997,313.991455   C112.635803,311.605255 129.156219,313.065338 145.648666,313.000000   C146.812576,312.995392 147.978668,312.981171 149.140274,313.040070   C161.851379,313.684509 174.555588,314.577942 187.274612,314.914093   C195.715530,315.137238 201.391953,310.719360 204.420258,302.975708   C207.525528,304.351257 210.241165,305.732513 213.200317,307.471497   C240.665543,307.886078 267.887238,307.969238 295.108917,307.971069   C299.101013,307.971313 301.890167,305.967896 303.460632,301.819641   C303.575500,298.717377 303.345459,295.837616 303.060455,292.599884   C300.039001,290.475525 297.072540,288.709137 294.060852,286.480774   C294.044189,280.693146 294.072754,275.367493 294.408264,269.877655   C296.746002,268.145294 298.776764,266.577057 301.013763,265.378418   C306.020355,265.256927 309.213135,266.612183 309.768433,272.134735   C309.907410,273.516754 312.112457,275.926422 313.052582,275.783936   C317.755249,275.070953 322.907837,274.546570 326.749115,272.126007   C328.616364,270.949371 327.962311,265.771606 328.562042,261.628723   C328.722321,261.526489 330.231964,260.999847 331.084595,259.943146   C334.419891,255.809402 338.393951,255.964401 342.486877,258.194031   C345.890991,260.048431 348.299469,258.425598 350.222748,256.193695   C356.636902,248.750397 354.972809,241.942566 346.046936,238.173019   C346.511566,235.491852 346.974457,232.812103 347.198822,231.513199   C350.694336,229.600021 354.711273,228.772720 355.707367,226.575775   C357.899231,221.741486 356.000366,216.515518 353.364288,212.130219   C352.557587,210.788208 349.130920,209.611740 347.810181,210.246094   C343.431030,212.349380 341.670105,210.223282 339.947113,206.842178   C339.297150,205.566711 338.086365,204.577042 337.131287,203.457031   C342.081909,198.199402 342.109344,197.839615 338.008484,191.957184   C333.451752,185.420822 327.025879,185.321884 321.834412,191.400192   C320.916077,192.475418 318.674103,192.420135 317.036560,192.487213   C317.686584,188.645874 318.988190,185.180038 318.860229,181.767822   C318.624878,175.491608 317.548462,169.246902 317.024353,162.632263   C321.405212,161.544144 324.804535,161.981323 325.708557,167.162109   C325.890381,168.204300 327.381012,169.930176 328.025940,169.826981   C331.434723,169.281494 335.168182,168.892822 337.965729,167.137543   C339.517822,166.163712 339.461731,162.626785 340.529938,158.822525   C345.767944,155.017365 345.775116,155.000565 348.262756,156.062531   C351.917175,157.622620 355.032135,158.077042 357.126282,153.507080   C360.021851,147.188324 359.862762,145.434494 355.149231,142.610367   C352.537109,141.045319 352.211884,137.174545 354.776581,136.142563   C356.693878,135.371078 358.914459,135.353363 361.000000,135.000000  z"/>
<path fill="#d3e5e8" opacity="1.000000" stroke="none" d=" M361.000000,134.541931   C358.914459,135.353363 356.693878,135.371078 354.776581,136.142563   C352.211884,137.174545 352.537109,141.045319 355.149231,142.610367   C359.862762,145.434494 360.021851,147.188324 357.126282,153.507080   C355.032135,158.077042 351.917175,157.622620 348.262756,156.062531   C345.775116,155.000565 345.767944,155.017365 340.529938,158.822525   C339.461731,162.626785 339.517822,166.163712 337.965729,167.137543   C335.168182,168.892822 331.434723,169.281494 328.025940,169.826981   C327.381012,169.930176 325.890381,168.204300 325.708557,167.162109   C324.804535,161.981323 321.405212,161.544144 316.701294,162.499619   C312.453369,155.749344 308.924438,148.660797 304.922180,141.850372   C303.026825,138.625214 300.226532,135.931885 297.836212,132.997604   C298.203278,131.944138 298.570343,130.890671 298.937988,129.837372   C293.645752,126.631424 292.689880,124.047661 294.967377,119.103279   C297.656158,113.266182 297.828735,113.209732 305.466370,115.613930   C306.972992,114.578064 308.669952,113.784416 309.816650,112.499664   C310.665649,111.548462 311.339661,109.875603 311.154846,108.667542   C310.450684,104.064774 313.263519,102.587425 316.832947,101.657661   C320.327271,100.747459 323.868561,99.592079 325.769226,104.361343   C327.380493,108.404419 332.428650,109.574440 335.150146,106.141266   C338.604126,101.783997 341.926697,103.245865 345.050842,105.705261   C347.923676,107.966843 351.176331,110.371803 347.784515,115.162895   C346.924530,116.377617 349.135193,119.766167 350.088928,122.616096   C354.934113,119.040916 357.616333,122.018539 360.704407,124.300720   C361.000000,127.361290 361.000000,130.722580 361.000000,134.541931  M332.204498,123.023918   C327.377441,120.856857 322.601105,120.359856 318.377014,124.190475   C314.195221,127.982712 311.145660,131.940674 312.781433,138.545776   C314.061279,143.713806 319.314453,148.602356 325.799194,148.979843   C332.056122,149.344055 337.800598,144.605942 339.738251,137.664825   C341.097565,132.795425 338.043854,126.413826 332.204498,123.023918  z"/>
<path fill="#1a2e35" opacity="1.000000" stroke="none" d=" M204.030609,302.981384   C201.391953,310.719360 195.715530,315.137238 187.274612,314.914093   C174.555588,314.577942 161.851379,313.684509 149.140274,313.040070   C147.978668,312.981171 146.812576,312.995392 145.648666,313.000000   C129.156219,313.065338 112.635803,311.605255 96.185997,313.991455   C88.471153,315.110565 80.739449,316.113434 73.007690,317.584503   C68.975456,318.000000 64.950912,318.000000 60.472012,317.540833   C60.034172,313.449860 60.050690,309.818054 60.067207,306.186218   C65.507530,305.365143 70.947861,304.544067 77.094452,303.385773   C84.206909,302.034088 90.613091,301.019653 97.452316,300.007416   C102.244713,299.341522 106.604057,298.673401 111.369217,298.004578   C114.226677,297.312927 116.678322,296.621979 119.429749,295.954559   C120.130432,295.984711 120.531334,295.991302 121.387177,296.035339   C127.045120,295.369110 132.248108,294.665497 137.891052,293.974182   C147.063156,293.659882 155.795273,293.333191 164.801041,293.328186   C178.126389,295.231812 191.178116,296.813721 204.199554,298.776825   C204.123062,300.432465 204.076843,301.706940 204.030609,302.981384  z"/>
<path fill="#2e3b59" opacity="1.000000" stroke="none" d=" M59.787567,306.033508   C60.050690,309.818054 60.034172,313.449860 60.008827,317.540833   C56.969406,318.000000 53.938812,318.000000 50.454109,318.000000   C49.998463,313.308990 49.996929,308.617981 50.019638,303.038696   C50.338638,299.856873 50.633404,297.563324 50.928165,295.269806   C51.485134,295.257446 52.042103,295.245117 52.599068,295.232758   C54.082314,297.852356 55.565559,300.471985 57.048801,303.091583   C57.868511,304.021301 58.688217,304.951050 59.787567,306.033508  z"/>
<path fill="#6c767e" opacity="1.000000" stroke="none" d=" M295.736694,75.933495   C267.445923,75.933495 239.155136,75.933495 210.480728,75.933495   C207.719681,67.859901 205.619354,59.825153 210.730240,51.710312   C215.042679,44.863228 227.519501,40.094444 235.178528,42.684555   C242.280029,45.086132 249.277023,46.045685 256.772919,44.208660   C262.245270,42.867538 265.819000,39.464954 268.260712,35.090935   C277.677765,18.221590 306.797852,15.470605 320.303131,23.044592   C330.006927,28.486639 334.217255,37.200539 336.080841,47.732548   C337.639069,56.538765 336.231567,64.714165 333.185913,72.970261   C332.157379,75.758537 330.829834,76.027222 328.538727,76.016838   C319.384583,75.975334 310.230072,76.000031 300.500854,75.614609   C298.955994,70.767021 297.985992,66.305061 297.239685,61.585808   C298.395050,60.423706 299.645691,59.679909 300.198730,58.584042   C301.891632,55.229599 301.451294,52.066414 298.179932,49.898521   C295.172272,47.905399 292.098389,48.322811 289.688965,50.982059   C287.056519,53.887512 287.431824,57.059418 289.878052,59.901894   C290.698090,60.854748 292.051605,61.348484 293.221283,62.440239   C294.099762,67.196770 294.918243,71.565132 295.736694,75.933495  z"/>
<path fill="#ffbd08" opacity="1.000000" stroke="none" d=" M297.526672,132.866013   C300.226532,135.931885 303.026825,138.625214 304.922180,141.850372   C308.924438,148.660797 312.453369,155.749344 316.499542,162.856445   C317.548462,169.246902 318.624878,175.491608 318.860229,181.767822   C318.988190,185.180038 317.686584,188.645874 316.753784,192.709778   C313.692841,198.899414 310.907898,204.466812 307.981323,210.352386   C304.269897,215.637619 300.226105,220.342545 297.286438,225.658096   C295.098969,229.613464 294.341583,234.359711 292.830933,239.194183   C292.753601,242.033203 292.792633,244.431763 292.396301,246.888260   C289.313110,246.909576 286.665253,246.872940 284.006287,246.399475   C281.084015,233.304733 285.774780,222.637711 292.298248,212.200043   C295.705353,206.748627 298.923126,200.885178 300.700958,194.764709   C305.861359,176.999512 296.314362,151.754532 281.114685,141.060898   C265.912476,130.365479 248.180588,129.638229 233.857712,138.363998   C211.979980,151.692322 199.318054,185.311508 217.760818,211.056808   C225.524048,221.893951 230.111725,233.318878 227.527420,246.899994   C225.400909,246.957886 223.694916,246.945084 222.001465,246.558029   C222.574860,244.632111 222.925476,242.959473 223.735703,241.551254   C226.242599,237.194153 224.506287,234.832718 219.987854,233.301422   C218.416473,232.067169 217.103973,231.016693 215.755417,229.629333   C213.823471,226.509705 211.927582,223.726974 210.020874,220.974091   C210.010056,221.003937 210.057907,220.962082 210.012756,220.674393   C209.675385,220.149246 209.383148,219.911804 209.067429,219.247147   C208.652756,215.527985 208.261581,212.236008 207.883270,208.570343   C206.237564,204.095001 203.240952,204.562057 199.777039,205.563873   C191.245117,192.685791 189.771667,179.054657 193.893463,164.859589   C195.765335,158.413055 198.709015,152.277725 201.469696,145.849045   C206.901291,139.755646 212.029678,133.814438 217.232651,127.786850   C215.918533,127.040001 213.975800,125.935875 212.153046,124.538361   C213.186584,123.112198 214.100113,121.979424 215.013641,120.846649   C220.123810,124.221222 225.167740,125.504547 230.885773,121.751724   C233.460663,120.061775 236.815079,119.559555 239.993530,118.456764   C239.993530,114.942673 239.993530,111.477493 240.373535,107.465065   C242.123077,106.790588 243.492645,106.663376 244.862198,106.536163   C244.862198,110.181267 244.862198,113.826378 244.862198,117.615700   C264.766846,115.161316 282.165741,119.954750 297.526672,132.866013  z"/>
<path fill="#6c767e" opacity="1.000000" stroke="none" d=" M69.924232,145.088058   C51.950607,145.058502 33.976589,144.963043 16.003794,145.071350   C13.347452,145.087357 12.018208,144.392838 10.922966,141.903397   C5.549355,129.689453 6.363874,105.082214 19.192282,95.249954   C27.289970,89.043518 36.592377,87.002327 46.281822,88.191963   C54.640881,89.218254 63.444588,90.321342 69.794418,97.003418   C73.750992,101.167015 77.361145,105.659798 81.580841,110.325363   C82.812897,111.694626 83.590889,112.743370 84.304291,114.273911   C84.113701,119.125656 83.987694,123.495621 83.407059,127.911926   C79.085571,127.958282 75.218719,127.958282 71.505264,127.958282   C70.928818,134.203812 70.426529,139.645935 69.924232,145.088058  z"/>
<path fill="#8de9f7" opacity="1.000000" stroke="none" d=" M69.957336,145.549255   C70.426529,139.645935 70.928818,134.203812 71.505264,127.958282   C75.218719,127.958282 79.085571,127.958282 83.801605,127.979477   C85.705399,127.946426 86.760025,127.892189 88.242943,127.895355   C91.415504,127.715248 91.961502,129.244690 91.925850,131.629715   C91.858978,136.103821 92.017464,140.581299 92.045822,145.521179   C92.029617,183.633514 92.049820,221.282043 91.599350,258.982239   C84.070724,258.991455 77.012794,258.949005 69.954857,258.906555   C69.964928,229.925964 69.974998,200.945374 70.111778,171.185791   C70.151817,168.891220 70.065147,167.375610 69.978470,165.860016   C69.982460,159.243500 69.986450,152.626984 69.957336,145.549255  z"/>
<path fill="#17a2b8" opacity="1.000000" stroke="none" d=" M57.488327,303.052734   C55.565559,300.471985 54.082314,297.852356 52.599068,295.232758   C52.042103,295.245117 51.485134,295.257446 50.928165,295.269806   C50.633404,297.563324 50.338638,299.856873 50.008900,302.572296   C41.515114,302.994202 33.056309,302.994202 24.612530,302.994202   C24.612530,283.341339 24.612530,264.024017 24.612530,244.354309   C37.267048,244.354309 49.311401,244.354309 61.679028,244.354309   C61.679028,263.673920 61.679028,283.052521 61.679028,303.013855   C60.441555,303.013855 59.184704,303.013855 57.488327,303.052734  z"/>
<path fill="#8de9f7" opacity="1.000000" stroke="none" d=" M201.166504,146.001236   C198.709015,152.277725 195.765335,158.413055 193.893463,164.859589   C189.771667,179.054657 191.245117,192.685791 199.661987,205.855255   C199.763016,209.571030 199.761749,212.676880 199.833557,216.185669   C199.096298,219.127472 198.285950,221.666321 197.120789,224.123779   C191.160202,223.063492 185.554398,222.084610 179.701996,221.053604   C179.294052,220.954514 179.132706,220.907547 178.982880,220.400787   C179.013229,196.039139 179.032074,172.137283 179.350525,148.016724   C179.406525,146.175552 179.162933,144.553101 178.919327,142.930649   C178.919327,138.142990 178.919327,133.355316 178.919327,127.986221   C185.864365,127.986221 192.444504,127.986221 199.782196,128.218872   C200.684265,130.367950 200.828781,132.284378 200.967331,134.647797   C201.029755,138.730255 201.098129,142.365738 201.166504,146.001236  z"/>
<path fill="#17a2b8" opacity="1.000000" stroke="none" d=" M69.588585,259.150146   C77.012794,258.949005 84.070724,258.991455 91.959335,259.011658   C93.509613,258.964783 94.229218,258.940216 95.413300,258.968384   C97.837265,259.046967 99.826248,259.301758 101.750458,259.053802   C106.636833,258.424194 110.388092,259.229004 110.744400,265.471222   C106.124474,277.207275 101.571877,288.606232 97.019287,300.005188   C90.613091,301.019653 84.206909,302.034088 77.354134,303.093658   C74.445755,303.138763 71.983971,303.138763 69.222313,303.138763   C69.222313,288.235229 69.222313,273.814484 69.588585,259.150146  z"/>
<path fill="#ff4f5a" opacity="1.000000" stroke="none" d=" M178.547516,142.954819   C179.162933,144.553101 179.406525,146.175552 178.973969,147.908539   C164.565842,142.699051 150.833878,137.379013 136.876373,131.776184   C121.833153,125.617165 107.015472,119.740952 92.324783,113.590317   C93.325302,112.185661 94.198830,111.055435 95.072365,109.925201   C97.814262,110.954216 100.556168,111.983231 103.856056,113.381126   C114.948929,117.786652 125.483810,121.823296 136.018692,125.859940   C147.571655,130.551559 159.124588,135.243225 170.677567,139.934799   C173.176865,140.949722 175.676315,141.964264 178.547516,142.954819  z"/>
<path fill="#ff4f5a" opacity="1.000000" stroke="none" d=" M294.848511,94.008377   C285.625732,95.473602 276.405334,96.954140 267.179260,98.398415   C261.443115,99.296364 255.698380,100.139420 249.455856,100.644455   C248.841034,99.236183 248.727844,98.190559 248.614670,97.144928   C260.113861,95.096466 271.615540,93.061821 283.110657,90.990891   C286.443726,90.390404 289.758057,89.685928 293.561249,89.356483   C294.310516,91.125359 294.579498,92.566864 294.848511,94.008377  z"/>
<path fill="#ff4f5a" opacity="1.000000" stroke="none" d=" M69.532867,165.920898   C70.065147,167.375610 70.151817,168.891220 70.057816,170.722290   C60.288734,172.005554 50.700230,172.972336 41.111980,173.941666   C37.711674,174.285431 34.311989,174.635330 30.257401,174.791870   C29.068083,173.122955 28.533381,171.644562 27.998680,170.166168   C41.694870,168.771362 55.391064,167.376572 69.532867,165.920898  z"/>
<path fill="#6c767e" opacity="1.000000" stroke="none" d=" M136.002167,125.499542   C125.483810,121.823296 114.948929,117.786652 104.229225,113.455933   C112.955605,109.213249 121.464287,110.294952 129.008926,116.138206   C131.915024,118.388962 133.693436,122.095757 136.002167,125.499542  z"/>
<path fill="#1a2e35" opacity="1.000000" stroke="none" d=" M248.386780,96.885818   C248.727844,98.190559 248.841034,99.236183 249.023926,100.669014   C247.855087,102.753647 246.616531,104.451065 245.120087,106.342323   C243.492645,106.663376 242.123077,106.790588 240.351746,107.010147   C233.808380,101.786766 233.732513,96.620697 239.652969,93.762169   C243.542023,91.884460 246.002579,93.661476 248.386780,96.885818  z"/>
<path fill="#1a2e35" opacity="1.000000" stroke="none" d=" M27.659758,169.998047   C28.533381,171.644562 29.068083,173.122955 29.840767,174.839355   C28.096077,177.383286 26.500313,180.503052 23.988983,181.696976   C22.424730,182.440659 18.190866,180.865326 17.456097,179.270569   C16.402611,176.984085 16.579718,173.268768 17.788744,170.989548   C19.987120,166.845200 23.753780,167.185760 27.659758,169.998047  z"/>
<path fill="#1a2e35" opacity="1.000000" stroke="none" d=" M295.020142,94.351120   C294.579498,92.566864 294.310516,91.125359 293.965454,89.321045   C294.724762,87.677589 295.560059,86.396942 297.061035,84.907143   C299.157532,84.421936 300.588440,84.145889 302.019318,83.869843   C305.944275,84.261505 307.844299,87.011543 307.763519,90.368698   C307.716705,92.314949 306.038757,94.893707 304.327942,95.980331   C301.300598,97.903137 297.836395,97.952362 295.020142,94.351120  z"/>
<path fill="#1a2e35" opacity="1.000000" stroke="none" d=" M95.040955,109.519630   C94.198830,111.055435 93.325302,112.185661 91.997040,113.738861   C90.413094,114.467628 89.283882,114.773430 87.847694,114.945557   C86.483437,114.471970 85.426155,114.132042 84.368881,113.792114   C83.590889,112.743370 82.812897,111.694626 81.934891,110.333984   C81.883614,109.698097 81.960213,109.375534 81.976952,109.049896   C82.265350,103.438431 84.061638,101.134735 88.260406,101.004616   C92.487617,100.873619 94.776390,103.623695 95.040955,109.519630  z"/>
<path fill="#1a2e35" opacity="1.000000" stroke="none" d=" M214.996201,120.472977   C214.100113,121.979424 213.186584,123.112198 211.798981,124.707054   C209.571320,125.475204 207.817719,125.781273 205.789856,125.921051   C204.399170,125.170334 203.282715,124.585907 202.166290,124.001480   C202.156784,121.129013 201.201935,117.711586 202.442429,115.559700   C203.402725,113.893845 207.113739,113.157890 209.595306,113.172012   C213.755127,113.195671 213.660522,117.379120 214.996201,120.472977  z"/>
<path fill="#ff4f5a" opacity="1.000000" stroke="none" d=" M301.863586,83.525864   C300.588440,84.145889 299.157532,84.421936 297.370087,84.765068   C296.663971,82.140083 296.314423,79.448021 295.850769,76.344727   C294.918243,71.565132 294.099762,67.196770 293.606476,62.419769   C294.959747,61.955128 295.987885,61.899120 297.015991,61.843109   C297.985992,66.305061 298.955994,70.767021 300.042114,75.616959   C300.674774,78.397247 301.191315,80.789566 301.863586,83.525864  z"/>
<path fill="#ff4f5a" opacity="1.000000" stroke="none" d=" M202.031769,124.301804   C203.282715,124.585907 204.399170,125.170334 205.761200,126.277489   C204.328964,129.267090 202.651123,131.733963 200.973282,134.200821   C200.828781,132.284378 200.684265,130.367950 200.245651,128.171936   C200.600113,126.795616 201.248688,125.698868 202.031769,124.301804  z"/>
<path fill="#d3e5e8" opacity="1.000000" stroke="none" d=" M308.122925,210.034210   C310.907898,204.466812 313.692841,198.899414 316.760620,193.109467   C318.674103,192.420135 320.916077,192.475418 321.834412,191.400192   C327.025879,185.321884 333.451752,185.420822 338.008484,191.957184   C342.109344,197.839615 342.081909,198.199402 337.131287,203.457031   C338.086365,204.577042 339.297150,205.566711 339.947113,206.842178   C341.670105,210.223282 343.431030,212.349380 347.810181,210.246094   C349.130920,209.611740 352.557587,210.788208 353.364288,212.130219   C356.000366,216.515518 357.899231,221.741486 355.707367,226.575775   C354.711273,228.772720 350.694336,229.600021 347.198822,231.513199   C346.974457,232.812103 346.511566,235.491852 346.046936,238.173019   C354.972809,241.942566 356.636902,248.750397 350.222748,256.193695   C348.299469,258.425598 345.890991,260.048431 342.486877,258.194031   C338.393951,255.964401 334.419891,255.809402 331.084595,259.943146   C330.231964,260.999847 328.722321,261.526489 328.562042,261.628723   C327.962311,265.771606 328.616364,270.949371 326.749115,272.126007   C322.907837,274.546570 317.755249,275.070953 313.052582,275.783936   C312.112457,275.926422 309.907410,273.516754 309.768433,272.134735   C309.213135,266.612183 306.020355,265.256927 301.180969,265.052856   C306.965912,255.647690 303.476379,248.287811 292.831665,246.830307   C292.792633,244.431763 292.753601,242.033203 293.145142,239.351868   C294.869995,240.350983 296.093750,241.714859 297.471039,242.900375   C302.972534,247.635925 309.875641,249.709946 317.135895,246.418365   C324.486420,243.085861 328.508911,237.206879 328.868591,229.487976   C329.375854,218.601379 319.773926,209.992645 308.122925,210.034210  z"/>
<path fill="#ff4f5a" opacity="1.000000" stroke="none" d=" M292.396301,246.888260   C303.476379,248.287811 306.965912,255.647690 300.974731,264.683289   C298.776764,266.577057 296.746002,268.145294 294.116608,269.626465   C291.617889,268.695038 289.722809,267.129150 287.816956,267.115875   C263.867126,266.949524 239.915771,267.007568 215.665833,267.016541   C214.972412,266.968292 214.577972,266.911743 214.264557,266.516052   C216.893356,259.762024 219.441147,253.347153 221.988922,246.932266   C223.694916,246.945084 225.400909,246.957886 227.993622,246.970123   C233.901840,246.938385 238.923309,246.907227 244.342468,246.985382   C245.829208,247.023178 246.918274,246.951675 248.472443,246.929382   C254.607941,246.944565 260.278351,246.910538 266.346588,246.985504   C267.833740,247.023132 268.923096,246.951782 270.474243,246.929474   C275.296509,246.931122 279.656982,246.883713 284.017426,246.836304   C286.665253,246.872940 289.313110,246.909576 292.396301,246.888260  z"/>
<path fill="#17a2b8" opacity="1.000000" stroke="none" d=" M215.964783,267.008209   C239.915771,267.007568 263.867126,266.949524 287.816956,267.115875   C289.722809,267.129150 291.617889,268.695038 293.809631,269.790588   C294.072754,275.367493 294.044189,280.693146 293.585999,286.500610   C268.438354,287.004730 243.720291,287.027100 218.662155,287.037872   C217.641815,287.007172 216.961578,286.988098 216.262054,286.502899   C216.150131,279.693909 216.057465,273.351044 215.964783,267.008209  z"/>
<path fill="#ff4f5a" opacity="1.000000" stroke="none" d=" M216.281342,286.969055   C216.961578,286.988098 217.641815,287.007172 218.767746,287.422363   C220.893860,288.212311 222.572845,288.941376 224.254959,288.948639   C243.084671,289.029938 261.914886,288.980316 280.744934,289.009552   C288.422882,289.021454 296.352112,287.718536 303.115417,292.957855   C303.345459,295.837616 303.575500,298.717377 303.103058,301.844360   C299.311768,304.741241 295.926117,305.227081 291.754456,305.168823   C267.194946,304.826050 242.627991,304.958221 218.064407,305.091095   C216.358276,305.100281 214.659164,306.409271 212.956787,307.113800   C210.241165,305.732513 207.525528,304.351257 204.420258,302.975708   C204.076843,301.706940 204.123062,300.432465 204.531067,298.799133   C207.647156,299.258911 208.860596,298.184753 208.879974,295.361664   C208.892227,293.576050 209.152130,291.792145 209.587402,289.822632   C212.009674,288.748199 214.145508,287.858643 216.281342,286.969055  z"/>
<path fill="#17a2b8" opacity="1.000000" stroke="none" d=" M213.200317,307.471497   C214.659164,306.409271 216.358276,305.100281 218.064407,305.091095   C242.627991,304.958221 267.194946,304.826050 291.754456,305.168823   C295.926117,305.227081 299.311768,304.741241 302.758118,302.066895   C301.890167,305.967896 299.101013,307.971313 295.108917,307.971069   C267.887238,307.969238 240.665543,307.886078 213.200317,307.471497  z"/>
<path fill="#17a2b8" opacity="1.000000" stroke="none" d=" M303.060425,292.599884   C296.352112,287.718536 288.422882,289.021454 280.744934,289.009552   C261.914886,288.980316 243.084671,289.029938 224.254959,288.948639   C222.572845,288.941376 220.893860,288.212311 219.107834,287.433990   C243.720291,287.027100 268.438354,287.004730 293.631226,286.962555   C297.072540,288.709137 300.039001,290.475525 303.060425,292.599884  z"/>
<path fill="#ffffff" opacity="1.000000" stroke="none" d=" M332.554871,123.204628   C338.043854,126.413826 341.097565,132.795425 339.738251,137.664825   C337.800598,144.605942 332.056122,149.344055 325.799194,148.979843   C319.314453,148.602356 314.061279,143.713806 312.781433,138.545776   C311.145660,131.940674 314.195221,127.982712 318.377014,124.190475   C322.601105,120.359856 327.377441,120.856857 332.554871,123.204628  z"/>
<path fill="#1a2e35" opacity="1.000000" stroke="none" d=" M97.452324,300.007416   C101.571877,288.606232 106.124474,277.207275 110.892242,265.121643   C111.996376,262.519775 112.658379,260.449707 113.832497,258.729065   C115.257507,256.640717 117.114708,254.847229 119.129059,252.943237   C119.932381,252.952957 120.391556,252.945633 120.955246,253.273865   C133.339462,262.046051 145.619171,270.482697 158.122452,279.170227   C160.547302,280.903687 162.748581,282.386230 165.089447,284.088440   C165.511032,284.504150 165.793015,284.700165 166.071320,285.310547   C165.554214,288.152130 165.040802,290.579315 164.527405,293.006531   C155.795273,293.333191 147.063156,293.659882 137.667297,293.696625   C132.434021,288.101593 127.864479,282.796478 122.556725,276.634308   C121.762825,279.188660 121.312531,280.637451 120.579239,282.214172   C119.783821,282.984955 119.271408,283.627838 118.533966,284.487122   C115.860428,289.137421 113.411919,293.571320 110.963409,298.005249   C106.604057,298.673401 102.244713,299.341522 97.452324,300.007416  z"/>
<path fill="#ff4f5a" opacity="1.000000" stroke="none" d=" M164.801025,293.328186   C165.040802,290.579315 165.554214,288.152130 166.286896,285.033295   C167.036850,282.228943 167.567566,280.116241 168.425400,277.999817   C169.502029,277.663422 170.251511,277.330719 171.461823,277.081848   C184.683319,276.443420 197.443954,275.721161 210.202820,275.452454   C209.901001,280.606506 209.600983,285.307007 209.300964,290.007477   C209.152130,291.792145 208.892227,293.576050 208.879974,295.361664   C208.860596,298.184753 207.647156,299.258911 204.561340,298.417969   C191.178116,296.813721 178.126389,295.231812 164.801025,293.328186  z"/>
<path fill="#17a2b8" opacity="1.000000" stroke="none" d=" M120.862228,282.086273   C121.312531,280.637451 121.762825,279.188660 122.556725,276.634308   C127.864479,282.796478 132.434021,288.101593 137.227325,293.684265   C132.248108,294.665497 127.045120,295.369110 121.412842,295.572021   C120.943108,290.742981 120.902672,286.414612 120.862228,282.086273  z"/>
<path fill="#8de9f7" opacity="1.000000" stroke="none" d=" M111.369217,298.004578   C113.411919,293.571320 115.860428,289.137421 118.618660,284.921265   C118.995575,288.736328 119.062767,292.333679 119.129959,295.931000   C116.678322,296.621979 114.226677,297.312927 111.369217,298.004578  z"/>
<path fill="#ffffff" opacity="1.000000" stroke="none" d=" M119.429749,295.954559   C119.062767,292.333679 118.995575,288.736328 118.843689,284.704865   C119.271408,283.627838 119.783821,282.984955 120.579239,282.214172   C120.902672,286.414612 120.943108,290.742981 120.957886,295.534607   C120.531334,295.991302 120.130432,295.984711 119.429749,295.954559  z"/>
<path fill="#1a2e35" opacity="1.000000" stroke="none" d=" M297.239685,61.585808   C295.987885,61.899120 294.959747,61.955128 293.546448,62.031609   C292.051605,61.348484 290.698090,60.854748 289.878052,59.901894   C287.431824,57.059418 287.056519,53.887512 289.688965,50.982059   C292.098389,48.322811 295.172272,47.905399 298.179932,49.898521   C301.451294,52.066414 301.891632,55.229599 300.198730,58.584042   C299.645691,59.679909 298.395050,60.423706 297.239685,61.585808  z"/>
<path fill="#ffd255" opacity="1.000000" stroke="none" d=" M243.944794,246.876068   C238.923309,246.907227 233.901840,246.938385 228.414154,246.899414   C230.111725,233.318878 225.524048,221.893951 217.760818,211.056808   C199.318054,185.311508 211.979980,151.692322 233.857712,138.363998   C248.180588,129.638229 265.912476,130.365479 281.114685,141.060898   C296.314362,151.754532 305.861359,176.999512 300.700958,194.764709   C298.923126,200.885178 295.705353,206.748627 292.298248,212.200043   C285.774780,222.637711 281.084015,233.304733 284.006287,246.399475   C279.656982,246.883713 275.296509,246.931122 270.459839,246.469315   C269.980377,230.798813 270.039703,215.636856 269.877228,200.477264   C269.860931,198.958176 268.498718,197.453506 267.761139,195.942154   C267.170166,197.425919 266.078644,198.905197 266.065369,200.394119   C265.926971,215.887360 265.961914,231.382141 265.948761,246.876495   C260.278351,246.910538 254.607941,246.944565 248.458252,246.469238   C247.975723,230.799377 248.035141,215.638199 247.872589,200.479401   C247.856293,198.959427 246.493744,197.453888 245.755981,195.941650   C245.165604,197.426254 244.075211,198.906372 244.061905,200.396118   C243.923401,215.888550 243.958130,231.382523 243.944794,246.876068  z"/>
<path fill="#ffffff" opacity="1.000000" stroke="none" d=" M307.981323,210.352386   C319.773926,209.992645 329.375854,218.601379 328.868591,229.487976   C328.508911,237.206879 324.486420,243.085861 317.135895,246.418365   C309.875641,249.709946 302.972534,247.635925 297.471039,242.900375   C296.093750,241.714859 294.869995,240.350983 293.261505,238.911407   C294.341583,234.359711 295.098969,229.613464 297.286438,225.658096   C300.226105,220.342545 304.269897,215.637619 307.981323,210.352386  z"/>
<path fill="#ff4f5a" opacity="1.000000" stroke="none" d=" M171.000992,276.998016   C170.251511,277.330719 169.502029,277.663422 168.365479,277.631531   C168.231430,275.847595 168.484421,274.428284 168.848358,272.615875   C170.028854,266.460175 171.098419,260.697510 172.499908,255.104919   C173.908676,259.445038 174.985519,263.615082 176.292374,268.675751   C186.596970,255.180038 196.325531,242.438736 206.210556,229.656570   C206.570740,229.464325 206.625504,229.270630 206.640625,228.795792   C206.760681,228.382172 206.771423,228.207397 206.969177,227.798920   C207.691589,227.316681 208.226990,227.068146 209.092087,226.990646   C211.545013,228.096542 213.668243,229.031387 215.791473,229.966217   C217.103973,231.016693 218.416473,232.067169 219.811676,233.661102   C215.140121,243.739380 210.284195,253.225647 205.692108,262.837952   C204.274307,265.805695 202.438766,267.414337 199.152618,268.097198   C190.688828,269.856140 182.297073,271.965759 173.891754,273.998199   C172.386429,274.362183 169.873795,273.996643 171.000992,276.998016  z"/>
<path fill="#fec3c7" opacity="1.000000" stroke="none" d=" M171.461823,277.081848   C169.873795,273.996643 172.386429,274.362183 173.891754,273.998199   C182.297073,271.965759 190.688828,269.856140 199.152618,268.097198   C202.438766,267.414337 204.274307,265.805695 205.692108,262.837952   C210.284195,253.225647 215.140121,243.739380 220.070587,233.844879   C224.506287,234.832718 226.242599,237.194153 223.735703,241.551254   C222.925476,242.959473 222.574860,244.632111 222.001465,246.558029   C219.441147,253.347153 216.893356,259.762024 214.091675,266.844543   C212.626694,270.007751 211.415649,272.503326 210.204605,274.998901   C197.443954,275.721161 184.683319,276.443420 171.461823,277.081848  z"/>
<path fill="#fabe8d" opacity="1.000000" stroke="none" d=" M208.762390,226.819611   C208.226990,227.068146 207.691589,227.316681 206.695526,227.644196   C204.321060,227.492126 202.407227,227.261078 200.152542,226.914841   C199.032974,225.934830 198.254288,225.069992 197.475586,224.205170   C198.285950,221.666321 199.096298,219.127472 199.992554,215.846130   C200.509338,213.136932 200.940201,211.170212 201.317108,209.449722   C203.789001,209.258987 205.829697,209.101517 207.870392,208.944046   C208.261581,212.236008 208.652756,215.527985 208.843536,219.435974   C208.428314,220.368637 208.213486,220.685303 207.873718,221.053192   C207.831879,221.070023 207.914993,221.035660 208.344116,221.058487   C209.146057,221.064499 209.601990,221.013290 210.057907,220.962082   C210.057907,220.962082 210.010056,221.003937 209.943420,221.349136   C209.505325,223.402756 209.133865,225.111191 208.762390,226.819611  M202.270157,221.753510   C203.241547,222.138702 204.212921,222.523895 205.184311,222.909073   C205.210632,222.217499 205.236954,221.525925 205.263290,220.834351   C204.137115,220.992996 203.010941,221.151642 202.270157,221.753510  z"/>
<path fill="#ffffff" opacity="1.000000" stroke="none" d=" M200.967331,134.647797   C202.651123,131.733963 204.328964,129.267090 206.035446,126.443787   C207.817719,125.781273 209.571320,125.475204 211.678986,125.000443   C213.975800,125.935875 215.918533,127.040001 217.232651,127.786850   C212.029678,133.814438 206.901291,139.755646 201.469696,145.849045   C201.098129,142.365738 201.029755,138.730255 200.967331,134.647797  z"/>
<path fill="#43495f" opacity="1.000000" stroke="none" d=" M207.883255,208.570343   C205.829697,209.101517 203.789001,209.258987 201.317108,209.449722   C200.940201,211.170212 200.509338,213.136932 199.919479,215.443192   C199.761749,212.676880 199.763016,209.571030 199.879349,206.173767   C203.240952,204.562057 206.237564,204.095001 207.883255,208.570343  z"/>
<path fill="#bfd6ec" opacity="1.000000" stroke="none" d=" M209.092102,226.990646   C209.133865,225.111191 209.505325,223.402756 209.954254,221.319290   C211.927582,223.726974 213.823471,226.509705 215.755417,229.629333   C213.668243,229.031387 211.545013,228.096542 209.092102,226.990646  z"/>
<path fill="#bfd6ec" opacity="1.000000" stroke="none" d=" M210.012756,220.674393   C209.601990,221.013290 209.146057,221.064499 208.345062,221.057846   C208.000000,221.000000 207.998672,221.001968 207.998657,221.001968   C208.213486,220.685303 208.428314,220.368637 208.867035,219.863159   C209.383148,219.911804 209.675385,220.149246 210.012756,220.674393  z"/>
<path fill="#ff4f5a" opacity="1.000000" stroke="none" d=" M84.304291,114.273911   C85.426155,114.132042 86.483437,114.471970 87.819794,115.400414   C88.004128,119.938606 87.909386,123.888275 87.814651,127.837952   C86.760025,127.892189 85.705399,127.946426 84.256233,127.933121   C83.987694,123.495621 84.113701,119.125656 84.304291,114.273911  z"/>
<path fill="#ffffff" opacity="1.000000" stroke="none" d=" M120.850723,252.938293   C120.391556,252.945633 119.932381,252.952957 119.196854,252.484680   C118.920486,226.108292 118.920486,200.207520 118.920486,174.301208   C110.710075,174.301208 102.986565,174.301208 94.948822,174.301208   C94.948822,202.706467 94.948822,230.811066 94.948822,258.915649   C94.229218,258.940216 93.509613,258.964783 92.430023,258.959961   C92.049820,221.282043 92.029617,183.633514 92.505989,145.495178   C104.795593,145.003815 116.609619,144.591049 128.371902,145.191650   C133.482712,145.452606 134.948608,143.051239 135.906509,139.224945   C136.492722,136.883301 136.715759,134.450729 137.101898,132.058990   C150.833878,137.379013 164.565842,142.699051 178.674362,148.127258   C179.032074,172.137283 179.013229,196.039139 178.635468,220.359924   C174.534760,218.591522 176.197708,223.868561 174.016907,223.426056   C173.518585,220.199036 175.503952,215.684021 171.291885,215.223557   C164.326370,214.462097 157.216980,215.016586 149.903198,215.016586   C149.903198,227.763840 149.903198,239.843872 149.523773,251.954880   C148.128616,251.965851 147.112885,251.945847 146.054169,251.462524   C146.011185,218.767319 146.011185,186.535461 146.011185,154.307129   C138.702423,154.307129 131.977097,154.307129 124.899773,154.307129   C124.899773,187.051895 124.899773,219.490433 124.529999,251.958160   C123.057060,252.304321 121.953888,252.621307 120.850723,252.938293  z"/>
<path fill="#6c767e" opacity="1.000000" stroke="none" d=" M136.876373,131.776184   C136.715759,134.450729 136.492722,136.883301 135.906509,139.224945   C134.948608,143.051239 133.482712,145.452606 128.371902,145.191650   C116.609619,144.591049 104.795593,145.003815 92.542389,145.031372   C92.017464,140.581299 91.858978,136.103821 91.925850,131.629715   C91.961502,129.244690 91.415504,127.715248 88.242943,127.895355   C87.909386,123.888275 88.004128,119.938606 88.126770,115.534073   C89.283882,114.773430 90.413094,114.467628 91.870056,114.013275   C107.015472,119.740952 121.833153,125.617165 136.876373,131.776184  z"/>
<path fill="#ffc3c8" opacity="1.000000" stroke="none" d=" M174.029282,223.854187   C176.197708,223.868561 174.534760,218.591522 178.623962,220.819702   C179.132706,220.907547 179.294052,220.954514 179.717804,221.509155   C180.381165,231.070114 180.782135,240.123413 181.183105,249.176712   C181.565018,249.361465 181.946945,249.546219 182.328857,249.730972   C188.383698,242.163986 194.438553,234.597000 200.493408,227.030029   C202.407227,227.261078 204.321060,227.492126 206.508514,227.877899   C206.771423,228.207397 206.760681,228.382172 206.531525,228.882416   C206.179626,229.346130 206.093292,229.509323 206.054092,229.697433   C196.325531,242.438736 186.596970,255.180038 176.292374,268.675751   C174.985519,263.615082 173.908676,259.445038 172.468781,254.740738   C172.114594,252.615921 172.497711,250.916214 172.070923,249.452682   C169.501999,240.643234 170.225235,232.145844 174.029282,223.854187  z"/>
<path fill="#ff4f5a" opacity="1.000000" stroke="none" d=" M200.152527,226.914841   C194.438553,234.597000 188.383698,242.163986 182.328857,249.730972   C181.946945,249.546219 181.565018,249.361465 181.183105,249.176712   C180.782135,240.123413 180.381165,231.070114 179.964417,221.561279   C185.554398,222.084610 191.160202,223.063492 197.120789,224.123779   C198.254288,225.069992 199.032974,225.934830 200.152527,226.914841  z"/>
<path fill="#8de9f7" opacity="1.000000" stroke="none" d=" M95.413300,258.968384   C94.948822,230.811066 94.948822,202.706467 94.948822,174.301208   C102.986565,174.301208 110.710075,174.301208 118.920486,174.301208   C118.920486,200.207520 118.920486,226.108292 118.852699,252.467621   C117.114708,254.847229 115.257507,256.640717 113.832497,258.729065   C112.658379,260.449707 111.996376,262.519775 110.959572,264.784546   C110.388092,259.229004 106.636833,258.424194 101.750458,259.053802   C99.826248,259.301758 97.837265,259.046967 95.413300,258.968384  z"/>
<path fill="#fffefc" opacity="1.000000" stroke="none" d=" M266.346588,246.985489   C265.961914,231.382141 265.926971,215.887360 266.065369,200.394119   C266.078644,198.905197 267.170166,197.425919 267.761139,195.942154   C268.498718,197.453506 269.860931,198.958176 269.877228,200.477264   C270.039703,215.636856 269.980377,230.798813 269.998016,246.420273   C268.923096,246.951782 267.833740,247.023132 266.346588,246.985489  z"/>
<path fill="#fffefb" opacity="1.000000" stroke="none" d=" M244.342468,246.985367   C243.958130,231.382523 243.923401,215.888550 244.061905,200.396118   C244.075211,198.906372 245.165604,197.426254 245.755981,195.941650   C246.493744,197.453888 247.856293,198.959427 247.872589,200.479401   C248.035141,215.638199 247.975723,230.799377 247.993149,246.420029   C246.918274,246.951675 245.829208,247.023178 244.342468,246.985367  z"/>
<path fill="#b9d8fc" opacity="1.000000" stroke="none" d=" M210.202820,275.452454   C211.415649,272.503326 212.626694,270.007751 214.010635,267.183655   C214.577972,266.911743 214.972412,266.968292 215.665833,267.016541   C216.057465,273.351044 216.150131,279.693909 216.262070,286.502930   C214.145508,287.858643 212.009674,288.748199 209.587402,289.822632   C209.600983,285.307007 209.901001,280.606506 210.202820,275.452454  z"/>
<path fill="#8de9f7" opacity="1.000000" stroke="none" d=" M174.016907,223.426056   C170.225235,232.145844 169.501999,240.643234 172.070923,249.452682   C172.497711,250.916214 172.114594,252.615921 172.136871,254.570679   C171.098419,260.697510 170.028854,266.460175 168.447510,272.618011   C166.957108,273.986450 165.318542,274.848785 165.132523,275.955292   C164.699631,278.530579 164.966522,281.223511 164.949860,283.868774   C162.748581,282.386230 160.547302,280.903687 158.130020,278.710175   C157.909454,272.683105 157.965363,267.366058 157.875565,262.051422   C157.828506,259.266876 158.230698,256.120758 157.053268,253.852585   C156.426361,252.644958 152.862991,252.978043 150.634567,252.564438   C150.360580,252.513580 150.145554,252.145157 149.903198,251.923904   C149.903198,239.843872 149.903198,227.763840 149.903198,215.016586   C157.216980,215.016586 164.326370,214.462097 171.291885,215.223557   C175.503952,215.684021 173.518585,220.199036 174.016907,223.426056  z"/>
<path fill="#17a2b8" opacity="1.000000" stroke="none" d=" M149.523773,251.954880   C150.145554,252.145157 150.360580,252.513580 150.634567,252.564438   C152.862991,252.978043 156.426361,252.644958 157.053268,253.852585   C158.230698,256.120758 157.828506,259.266876 157.875565,262.051422   C157.965363,267.366058 157.909454,272.683105 157.906448,278.459229   C145.619171,270.482697 133.339462,262.046051 120.955246,253.273865   C121.953888,252.621307 123.057060,252.304321 124.827438,252.263336   C132.362152,252.334839 139.229645,252.130341 146.097153,251.925842   C147.112885,251.945847 148.128616,251.965851 149.523773,251.954880  z"/>
<path fill="#17a2b8" opacity="1.000000" stroke="none" d=" M165.089447,284.088440   C164.966522,281.223511 164.699631,278.530579 165.132523,275.955292   C165.318542,274.848785 166.957108,273.986450 168.336578,273.011078   C168.484421,274.428284 168.231430,275.847595 168.038345,277.635223   C167.567566,280.116241 167.036850,282.228943 166.290588,284.618927   C165.793015,284.700165 165.511032,284.504150 165.089447,284.088440  z"/>
<path fill="#fabe8d" opacity="1.000000" stroke="none" d=" M206.210556,229.656570   C206.093292,229.509323 206.179626,229.346130 206.422180,229.121246   C206.625504,229.270630 206.570740,229.464325 206.210556,229.656570  z"/>
<path fill="#f3b78f" opacity="1.000000" stroke="none" d=" M202.077454,221.531906   C203.010941,221.151642 204.137115,220.992996 205.263290,220.834351   C205.236954,221.525925 205.210632,222.217499 205.184311,222.909073   C204.212921,222.523895 203.241547,222.138702 202.077454,221.531906  z"/>
<path fill="#f3b78f" opacity="1.000000" stroke="none" d=" M207.999054,221.000641   C207.914993,221.035660 207.831879,221.070023 207.873718,221.053192   C207.998672,221.001968 208.000000,221.000000 207.999054,221.000641  z"/>
<path fill="#8de9f7" opacity="1.000000" stroke="none" d=" M146.054169,251.462524   C139.229645,252.130341 132.362152,252.334839 125.197212,252.234161   C124.899773,219.490433 124.899773,187.051895 124.899773,154.307129   C131.977097,154.307129 138.702423,154.307129 146.011185,154.307129   C146.011185,186.535461 146.011185,218.767319 146.054169,251.462524  z"/>
</svg>